G04 #@! TF.GenerationSoftware,KiCad,Pcbnew,(5.1.2-1)-1*
G04 #@! TF.CreationDate,2019-06-13T22:38:42+01:00*
G04 #@! TF.ProjectId,K3S_Seq_IF_Front_Panel,4b33535f-5365-4715-9f49-465f46726f6e,rev?*
G04 #@! TF.SameCoordinates,Original*
G04 #@! TF.FileFunction,Legend,Top*
G04 #@! TF.FilePolarity,Positive*
%FSLAX46Y46*%
G04 Gerber Fmt 4.6, Leading zero omitted, Abs format (unit mm)*
G04 Created by KiCad (PCBNEW (5.1.2-1)-1) date 2019-06-13 22:38:42*
%MOMM*%
%LPD*%
G04 APERTURE LIST*
%ADD10C,0.150000*%
%ADD11C,0.120000*%
G04 APERTURE END LIST*
D10*
X140861285Y-43234100D02*
X140861285Y-42234100D01*
X141432714Y-43234100D02*
X141004142Y-42662672D01*
X141432714Y-42234100D02*
X140861285Y-42805529D01*
X141766047Y-42234100D02*
X142385095Y-42234100D01*
X142051761Y-42615053D01*
X142194619Y-42615053D01*
X142289857Y-42662672D01*
X142337476Y-42710291D01*
X142385095Y-42805529D01*
X142385095Y-43043624D01*
X142337476Y-43138862D01*
X142289857Y-43186481D01*
X142194619Y-43234100D01*
X141908904Y-43234100D01*
X141813666Y-43186481D01*
X141766047Y-43138862D01*
X142766047Y-43186481D02*
X142908904Y-43234100D01*
X143147000Y-43234100D01*
X143242238Y-43186481D01*
X143289857Y-43138862D01*
X143337476Y-43043624D01*
X143337476Y-42948386D01*
X143289857Y-42853148D01*
X143242238Y-42805529D01*
X143147000Y-42757910D01*
X142956523Y-42710291D01*
X142861285Y-42662672D01*
X142813666Y-42615053D01*
X142766047Y-42519815D01*
X142766047Y-42424577D01*
X142813666Y-42329339D01*
X142861285Y-42281720D01*
X142956523Y-42234100D01*
X143194619Y-42234100D01*
X143337476Y-42281720D01*
X144385095Y-42234100D02*
X144956523Y-42234100D01*
X144670809Y-43234100D02*
X144670809Y-42234100D01*
X145289857Y-43234100D02*
X145289857Y-42567434D01*
X145289857Y-42757910D02*
X145337476Y-42662672D01*
X145385095Y-42615053D01*
X145480333Y-42567434D01*
X145575571Y-42567434D01*
X146337476Y-43234100D02*
X146337476Y-42710291D01*
X146289857Y-42615053D01*
X146194619Y-42567434D01*
X146004142Y-42567434D01*
X145908904Y-42615053D01*
X146337476Y-43186481D02*
X146242238Y-43234100D01*
X146004142Y-43234100D01*
X145908904Y-43186481D01*
X145861285Y-43091243D01*
X145861285Y-42996005D01*
X145908904Y-42900767D01*
X146004142Y-42853148D01*
X146242238Y-42853148D01*
X146337476Y-42805529D01*
X146813666Y-42567434D02*
X146813666Y-43234100D01*
X146813666Y-42662672D02*
X146861285Y-42615053D01*
X146956523Y-42567434D01*
X147099380Y-42567434D01*
X147194619Y-42615053D01*
X147242238Y-42710291D01*
X147242238Y-43234100D01*
X147670809Y-43186481D02*
X147766047Y-43234100D01*
X147956523Y-43234100D01*
X148051761Y-43186481D01*
X148099380Y-43091243D01*
X148099380Y-43043624D01*
X148051761Y-42948386D01*
X147956523Y-42900767D01*
X147813666Y-42900767D01*
X147718428Y-42853148D01*
X147670809Y-42757910D01*
X147670809Y-42710291D01*
X147718428Y-42615053D01*
X147813666Y-42567434D01*
X147956523Y-42567434D01*
X148051761Y-42615053D01*
X148432714Y-42567434D02*
X148670809Y-43234100D01*
X148908904Y-42567434D01*
X149670809Y-43186481D02*
X149575571Y-43234100D01*
X149385095Y-43234100D01*
X149289857Y-43186481D01*
X149242238Y-43091243D01*
X149242238Y-42710291D01*
X149289857Y-42615053D01*
X149385095Y-42567434D01*
X149575571Y-42567434D01*
X149670809Y-42615053D01*
X149718428Y-42710291D01*
X149718428Y-42805529D01*
X149242238Y-42900767D01*
X150147000Y-43234100D02*
X150147000Y-42567434D01*
X150147000Y-42757910D02*
X150194619Y-42662672D01*
X150242238Y-42615053D01*
X150337476Y-42567434D01*
X150432714Y-42567434D01*
X150623190Y-42567434D02*
X151004142Y-42567434D01*
X150766047Y-42234100D02*
X150766047Y-43091243D01*
X150813666Y-43186481D01*
X150908904Y-43234100D01*
X151004142Y-43234100D01*
X151718428Y-43186481D02*
X151623190Y-43234100D01*
X151432714Y-43234100D01*
X151337476Y-43186481D01*
X151289857Y-43091243D01*
X151289857Y-42710291D01*
X151337476Y-42615053D01*
X151432714Y-42567434D01*
X151623190Y-42567434D01*
X151718428Y-42615053D01*
X151766047Y-42710291D01*
X151766047Y-42805529D01*
X151289857Y-42900767D01*
X152194619Y-43234100D02*
X152194619Y-42567434D01*
X152194619Y-42757910D02*
X152242238Y-42662672D01*
X152289857Y-42615053D01*
X152385095Y-42567434D01*
X152480333Y-42567434D01*
X154147000Y-43138862D02*
X154099380Y-43186481D01*
X153956523Y-43234100D01*
X153861285Y-43234100D01*
X153718428Y-43186481D01*
X153623190Y-43091243D01*
X153575571Y-42996005D01*
X153527952Y-42805529D01*
X153527952Y-42662672D01*
X153575571Y-42472196D01*
X153623190Y-42376958D01*
X153718428Y-42281720D01*
X153861285Y-42234100D01*
X153956523Y-42234100D01*
X154099380Y-42281720D01*
X154147000Y-42329339D01*
X154718428Y-43234100D02*
X154623190Y-43186481D01*
X154575571Y-43138862D01*
X154527952Y-43043624D01*
X154527952Y-42757910D01*
X154575571Y-42662672D01*
X154623190Y-42615053D01*
X154718428Y-42567434D01*
X154861285Y-42567434D01*
X154956523Y-42615053D01*
X155004142Y-42662672D01*
X155051761Y-42757910D01*
X155051761Y-43043624D01*
X155004142Y-43138862D01*
X154956523Y-43186481D01*
X154861285Y-43234100D01*
X154718428Y-43234100D01*
X155480333Y-42567434D02*
X155480333Y-43234100D01*
X155480333Y-42662672D02*
X155527952Y-42615053D01*
X155623190Y-42567434D01*
X155766047Y-42567434D01*
X155861285Y-42615053D01*
X155908904Y-42710291D01*
X155908904Y-43234100D01*
X156242238Y-42567434D02*
X156623190Y-42567434D01*
X156385095Y-42234100D02*
X156385095Y-43091243D01*
X156432714Y-43186481D01*
X156527952Y-43234100D01*
X156623190Y-43234100D01*
X156956523Y-43234100D02*
X156956523Y-42567434D01*
X156956523Y-42757910D02*
X157004142Y-42662672D01*
X157051761Y-42615053D01*
X157147000Y-42567434D01*
X157242238Y-42567434D01*
X157718428Y-43234100D02*
X157623190Y-43186481D01*
X157575571Y-43138862D01*
X157527952Y-43043624D01*
X157527952Y-42757910D01*
X157575571Y-42662672D01*
X157623190Y-42615053D01*
X157718428Y-42567434D01*
X157861285Y-42567434D01*
X157956523Y-42615053D01*
X158004142Y-42662672D01*
X158051761Y-42757910D01*
X158051761Y-43043624D01*
X158004142Y-43138862D01*
X157956523Y-43186481D01*
X157861285Y-43234100D01*
X157718428Y-43234100D01*
X158623190Y-43234100D02*
X158527952Y-43186481D01*
X158480333Y-43091243D01*
X158480333Y-42234100D01*
X160099380Y-42710291D02*
X159766047Y-42710291D01*
X159766047Y-43234100D02*
X159766047Y-42234100D01*
X160242238Y-42234100D01*
X160623190Y-43234100D02*
X160623190Y-42567434D01*
X160623190Y-42757910D02*
X160670809Y-42662672D01*
X160718428Y-42615053D01*
X160813666Y-42567434D01*
X160908904Y-42567434D01*
X161385095Y-43234100D02*
X161289857Y-43186481D01*
X161242238Y-43138862D01*
X161194619Y-43043624D01*
X161194619Y-42757910D01*
X161242238Y-42662672D01*
X161289857Y-42615053D01*
X161385095Y-42567434D01*
X161527952Y-42567434D01*
X161623190Y-42615053D01*
X161670809Y-42662672D01*
X161718428Y-42757910D01*
X161718428Y-43043624D01*
X161670809Y-43138862D01*
X161623190Y-43186481D01*
X161527952Y-43234100D01*
X161385095Y-43234100D01*
X162147000Y-42567434D02*
X162147000Y-43234100D01*
X162147000Y-42662672D02*
X162194619Y-42615053D01*
X162289857Y-42567434D01*
X162432714Y-42567434D01*
X162527952Y-42615053D01*
X162575571Y-42710291D01*
X162575571Y-43234100D01*
X162908904Y-42567434D02*
X163289857Y-42567434D01*
X163051761Y-42234100D02*
X163051761Y-43091243D01*
X163099380Y-43186481D01*
X163194619Y-43234100D01*
X163289857Y-43234100D01*
X164385095Y-43234100D02*
X164385095Y-42234100D01*
X164766047Y-42234100D01*
X164861285Y-42281720D01*
X164908904Y-42329339D01*
X164956523Y-42424577D01*
X164956523Y-42567434D01*
X164908904Y-42662672D01*
X164861285Y-42710291D01*
X164766047Y-42757910D01*
X164385095Y-42757910D01*
X165813666Y-43234100D02*
X165813666Y-42710291D01*
X165766047Y-42615053D01*
X165670809Y-42567434D01*
X165480333Y-42567434D01*
X165385095Y-42615053D01*
X165813666Y-43186481D02*
X165718428Y-43234100D01*
X165480333Y-43234100D01*
X165385095Y-43186481D01*
X165337476Y-43091243D01*
X165337476Y-42996005D01*
X165385095Y-42900767D01*
X165480333Y-42853148D01*
X165718428Y-42853148D01*
X165813666Y-42805529D01*
X166289857Y-42567434D02*
X166289857Y-43234100D01*
X166289857Y-42662672D02*
X166337476Y-42615053D01*
X166432714Y-42567434D01*
X166575571Y-42567434D01*
X166670809Y-42615053D01*
X166718428Y-42710291D01*
X166718428Y-43234100D01*
X167575571Y-43186481D02*
X167480333Y-43234100D01*
X167289857Y-43234100D01*
X167194619Y-43186481D01*
X167147000Y-43091243D01*
X167147000Y-42710291D01*
X167194619Y-42615053D01*
X167289857Y-42567434D01*
X167480333Y-42567434D01*
X167575571Y-42615053D01*
X167623190Y-42710291D01*
X167623190Y-42805529D01*
X167147000Y-42900767D01*
X168194619Y-43234100D02*
X168099380Y-43186481D01*
X168051761Y-43091243D01*
X168051761Y-42234100D01*
X169337476Y-42853148D02*
X170099380Y-42853148D01*
X171194619Y-42234100D02*
X171527952Y-43234100D01*
X171861285Y-42234100D01*
X172575571Y-43186481D02*
X172480333Y-43234100D01*
X172289857Y-43234100D01*
X172194619Y-43186481D01*
X172147000Y-43091243D01*
X172147000Y-42710291D01*
X172194619Y-42615053D01*
X172289857Y-42567434D01*
X172480333Y-42567434D01*
X172575571Y-42615053D01*
X172623190Y-42710291D01*
X172623190Y-42805529D01*
X172147000Y-42900767D01*
X173051761Y-43234100D02*
X173051761Y-42567434D01*
X173051761Y-42757910D02*
X173099380Y-42662672D01*
X173147000Y-42615053D01*
X173242238Y-42567434D01*
X173337476Y-42567434D01*
X173623190Y-43186481D02*
X173718428Y-43234100D01*
X173908904Y-43234100D01*
X174004142Y-43186481D01*
X174051761Y-43091243D01*
X174051761Y-43043624D01*
X174004142Y-42948386D01*
X173908904Y-42900767D01*
X173766047Y-42900767D01*
X173670809Y-42853148D01*
X173623190Y-42757910D01*
X173623190Y-42710291D01*
X173670809Y-42615053D01*
X173766047Y-42567434D01*
X173908904Y-42567434D01*
X174004142Y-42615053D01*
X174480333Y-43234100D02*
X174480333Y-42567434D01*
X174480333Y-42234100D02*
X174432714Y-42281720D01*
X174480333Y-42329339D01*
X174527952Y-42281720D01*
X174480333Y-42234100D01*
X174480333Y-42329339D01*
X175099380Y-43234100D02*
X175004142Y-43186481D01*
X174956523Y-43138862D01*
X174908904Y-43043624D01*
X174908904Y-42757910D01*
X174956523Y-42662672D01*
X175004142Y-42615053D01*
X175099380Y-42567434D01*
X175242238Y-42567434D01*
X175337476Y-42615053D01*
X175385095Y-42662672D01*
X175432714Y-42757910D01*
X175432714Y-43043624D01*
X175385095Y-43138862D01*
X175337476Y-43186481D01*
X175242238Y-43234100D01*
X175099380Y-43234100D01*
X175861285Y-42567434D02*
X175861285Y-43234100D01*
X175861285Y-42662672D02*
X175908904Y-42615053D01*
X176004142Y-42567434D01*
X176147000Y-42567434D01*
X176242238Y-42615053D01*
X176289857Y-42710291D01*
X176289857Y-43234100D01*
X178051761Y-43234100D02*
X177480333Y-43234100D01*
X177766047Y-43234100D02*
X177766047Y-42234100D01*
X177670809Y-42376958D01*
X177575571Y-42472196D01*
X177480333Y-42519815D01*
X178480333Y-43138862D02*
X178527952Y-43186481D01*
X178480333Y-43234100D01*
X178432714Y-43186481D01*
X178480333Y-43138862D01*
X178480333Y-43234100D01*
X179385095Y-42234100D02*
X179194619Y-42234100D01*
X179099380Y-42281720D01*
X179051761Y-42329339D01*
X178956523Y-42472196D01*
X178908904Y-42662672D01*
X178908904Y-43043624D01*
X178956523Y-43138862D01*
X179004142Y-43186481D01*
X179099380Y-43234100D01*
X179289857Y-43234100D01*
X179385095Y-43186481D01*
X179432714Y-43138862D01*
X179480333Y-43043624D01*
X179480333Y-42805529D01*
X179432714Y-42710291D01*
X179385095Y-42662672D01*
X179289857Y-42615053D01*
X179099380Y-42615053D01*
X179004142Y-42662672D01*
X178956523Y-42710291D01*
X178908904Y-42805529D01*
X154623190Y-44360291D02*
X154766047Y-44407910D01*
X154813666Y-44455529D01*
X154861285Y-44550767D01*
X154861285Y-44693624D01*
X154813666Y-44788862D01*
X154766047Y-44836481D01*
X154670809Y-44884100D01*
X154289857Y-44884100D01*
X154289857Y-43884100D01*
X154623190Y-43884100D01*
X154718428Y-43931720D01*
X154766047Y-43979339D01*
X154813666Y-44074577D01*
X154813666Y-44169815D01*
X154766047Y-44265053D01*
X154718428Y-44312672D01*
X154623190Y-44360291D01*
X154289857Y-44360291D01*
X155194619Y-44217434D02*
X155432714Y-44884100D01*
X155670809Y-44217434D02*
X155432714Y-44884100D01*
X155337476Y-45122196D01*
X155289857Y-45169815D01*
X155194619Y-45217434D01*
X156813666Y-44884100D02*
X156813666Y-43884100D01*
X157147000Y-44598386D01*
X157480333Y-43884100D01*
X157480333Y-44884100D01*
X158147000Y-43884100D02*
X158242238Y-43884100D01*
X158337476Y-43931720D01*
X158385095Y-43979339D01*
X158432714Y-44074577D01*
X158480333Y-44265053D01*
X158480333Y-44503148D01*
X158432714Y-44693624D01*
X158385095Y-44788862D01*
X158337476Y-44836481D01*
X158242238Y-44884100D01*
X158147000Y-44884100D01*
X158051761Y-44836481D01*
X158004142Y-44788862D01*
X157956523Y-44693624D01*
X157908904Y-44503148D01*
X157908904Y-44265053D01*
X157956523Y-44074577D01*
X158004142Y-43979339D01*
X158051761Y-43931720D01*
X158147000Y-43884100D01*
X158813666Y-43884100D02*
X159051761Y-44884100D01*
X159242238Y-44169815D01*
X159432714Y-44884100D01*
X159670809Y-43884100D01*
X160575571Y-43931720D02*
X160480333Y-43884100D01*
X160337476Y-43884100D01*
X160194619Y-43931720D01*
X160099380Y-44026958D01*
X160051761Y-44122196D01*
X160004142Y-44312672D01*
X160004142Y-44455529D01*
X160051761Y-44646005D01*
X160099380Y-44741243D01*
X160194619Y-44836481D01*
X160337476Y-44884100D01*
X160432714Y-44884100D01*
X160575571Y-44836481D01*
X160623190Y-44788862D01*
X160623190Y-44455529D01*
X160432714Y-44455529D01*
X161385095Y-44360291D02*
X161051761Y-44360291D01*
X161051761Y-44884100D02*
X161051761Y-43884100D01*
X161527952Y-43884100D01*
X162623190Y-43979339D02*
X162670809Y-43931720D01*
X162766047Y-43884100D01*
X163004142Y-43884100D01*
X163099380Y-43931720D01*
X163147000Y-43979339D01*
X163194619Y-44074577D01*
X163194619Y-44169815D01*
X163147000Y-44312672D01*
X162575571Y-44884100D01*
X163194619Y-44884100D01*
X163813666Y-43884100D02*
X163908904Y-43884100D01*
X164004142Y-43931720D01*
X164051761Y-43979339D01*
X164099380Y-44074577D01*
X164147000Y-44265053D01*
X164147000Y-44503148D01*
X164099380Y-44693624D01*
X164051761Y-44788862D01*
X164004142Y-44836481D01*
X163908904Y-44884100D01*
X163813666Y-44884100D01*
X163718428Y-44836481D01*
X163670809Y-44788862D01*
X163623190Y-44693624D01*
X163575571Y-44503148D01*
X163575571Y-44265053D01*
X163623190Y-44074577D01*
X163670809Y-43979339D01*
X163718428Y-43931720D01*
X163813666Y-43884100D01*
X165099380Y-44884100D02*
X164527952Y-44884100D01*
X164813666Y-44884100D02*
X164813666Y-43884100D01*
X164718428Y-44026958D01*
X164623190Y-44122196D01*
X164527952Y-44169815D01*
X165575571Y-44884100D02*
X165766047Y-44884100D01*
X165861285Y-44836481D01*
X165908904Y-44788862D01*
X166004142Y-44646005D01*
X166051761Y-44455529D01*
X166051761Y-44074577D01*
X166004142Y-43979339D01*
X165956523Y-43931720D01*
X165861285Y-43884100D01*
X165670809Y-43884100D01*
X165575571Y-43931720D01*
X165527952Y-43979339D01*
X165480333Y-44074577D01*
X165480333Y-44312672D01*
X165527952Y-44407910D01*
X165575571Y-44455529D01*
X165670809Y-44503148D01*
X165861285Y-44503148D01*
X165956523Y-44455529D01*
X166004142Y-44407910D01*
X166051761Y-44312672D01*
D11*
X192790000Y-57140000D02*
G75*
G03X192790000Y-57140000I-6100000J0D01*
G01*
X97057665Y-46078608D02*
G75*
G03X100290000Y-46235516I1672335J1078608D01*
G01*
X97057665Y-43921392D02*
G75*
G02X100290000Y-43764484I1672335J-1078608D01*
G01*
X97688870Y-46079837D02*
G75*
G03X99770961Y-46080000I1041130J1079837D01*
G01*
X97688870Y-43920163D02*
G75*
G02X99770961Y-43920000I1041130J-1079837D01*
G01*
X100290000Y-46236000D02*
X100290000Y-46080000D01*
X100290000Y-43920000D02*
X100290000Y-43764000D01*
X115290000Y-43920000D02*
X115290000Y-43764000D01*
X115290000Y-46236000D02*
X115290000Y-46080000D01*
X112688870Y-43920163D02*
G75*
G02X114770961Y-43920000I1041130J-1079837D01*
G01*
X112688870Y-46079837D02*
G75*
G03X114770961Y-46080000I1041130J1079837D01*
G01*
X112057665Y-43921392D02*
G75*
G02X115290000Y-43764484I1672335J-1078608D01*
G01*
X112057665Y-46078608D02*
G75*
G03X115290000Y-46235516I1672335J1078608D01*
G01*
X122057665Y-46078608D02*
G75*
G03X125290000Y-46235516I1672335J1078608D01*
G01*
X122057665Y-43921392D02*
G75*
G02X125290000Y-43764484I1672335J-1078608D01*
G01*
X122688870Y-46079837D02*
G75*
G03X124770961Y-46080000I1041130J1079837D01*
G01*
X122688870Y-43920163D02*
G75*
G02X124770961Y-43920000I1041130J-1079837D01*
G01*
X125290000Y-46236000D02*
X125290000Y-46080000D01*
X125290000Y-43920000D02*
X125290000Y-43764000D01*
X135290000Y-43920000D02*
X135290000Y-43764000D01*
X135290000Y-46236000D02*
X135290000Y-46080000D01*
X132688870Y-43920163D02*
G75*
G02X134770961Y-43920000I1041130J-1079837D01*
G01*
X132688870Y-46079837D02*
G75*
G03X134770961Y-46080000I1041130J1079837D01*
G01*
X132057665Y-43921392D02*
G75*
G02X135290000Y-43764484I1672335J-1078608D01*
G01*
X132057665Y-46078608D02*
G75*
G03X135290000Y-46235516I1672335J1078608D01*
G01*
X117057665Y-56078608D02*
G75*
G03X120290000Y-56235516I1672335J1078608D01*
G01*
X117057665Y-53921392D02*
G75*
G02X120290000Y-53764484I1672335J-1078608D01*
G01*
X117688870Y-56079837D02*
G75*
G03X119770961Y-56080000I1041130J1079837D01*
G01*
X117688870Y-53920163D02*
G75*
G02X119770961Y-53920000I1041130J-1079837D01*
G01*
X120290000Y-56236000D02*
X120290000Y-56080000D01*
X120290000Y-53920000D02*
X120290000Y-53764000D01*
X140290000Y-53920000D02*
X140290000Y-53764000D01*
X140290000Y-56236000D02*
X140290000Y-56080000D01*
X137688870Y-53920163D02*
G75*
G02X139770961Y-53920000I1041130J-1079837D01*
G01*
X137688870Y-56079837D02*
G75*
G03X139770961Y-56080000I1041130J1079837D01*
G01*
X137057665Y-53921392D02*
G75*
G02X140290000Y-53764484I1672335J-1078608D01*
G01*
X137057665Y-56078608D02*
G75*
G03X140290000Y-56235516I1672335J1078608D01*
G01*
X157057665Y-56078608D02*
G75*
G03X160290000Y-56235516I1672335J1078608D01*
G01*
X157057665Y-53921392D02*
G75*
G02X160290000Y-53764484I1672335J-1078608D01*
G01*
X157688870Y-56079837D02*
G75*
G03X159770961Y-56080000I1041130J1079837D01*
G01*
X157688870Y-53920163D02*
G75*
G02X159770961Y-53920000I1041130J-1079837D01*
G01*
X160290000Y-56236000D02*
X160290000Y-56080000D01*
X160290000Y-53920000D02*
X160290000Y-53764000D01*
X100290000Y-63920000D02*
X100290000Y-63764000D01*
X100290000Y-66236000D02*
X100290000Y-66080000D01*
X97688870Y-63920163D02*
G75*
G02X99770961Y-63920000I1041130J-1079837D01*
G01*
X97688870Y-66079837D02*
G75*
G03X99770961Y-66080000I1041130J1079837D01*
G01*
X97057665Y-63921392D02*
G75*
G02X100290000Y-63764484I1672335J-1078608D01*
G01*
X97057665Y-66078608D02*
G75*
G03X100290000Y-66235516I1672335J1078608D01*
G01*
X117057665Y-76078608D02*
G75*
G03X120290000Y-76235516I1672335J1078608D01*
G01*
X117057665Y-73921392D02*
G75*
G02X120290000Y-73764484I1672335J-1078608D01*
G01*
X117688870Y-76079837D02*
G75*
G03X119770961Y-76080000I1041130J1079837D01*
G01*
X117688870Y-73920163D02*
G75*
G02X119770961Y-73920000I1041130J-1079837D01*
G01*
X120290000Y-76236000D02*
X120290000Y-76080000D01*
X120290000Y-73920000D02*
X120290000Y-73764000D01*
X140290000Y-73920000D02*
X140290000Y-73764000D01*
X140290000Y-76236000D02*
X140290000Y-76080000D01*
X137688870Y-73920163D02*
G75*
G02X139770961Y-73920000I1041130J-1079837D01*
G01*
X137688870Y-76079837D02*
G75*
G03X139770961Y-76080000I1041130J1079837D01*
G01*
X137057665Y-73921392D02*
G75*
G02X140290000Y-73764484I1672335J-1078608D01*
G01*
X137057665Y-76078608D02*
G75*
G03X140290000Y-76235516I1672335J1078608D01*
G01*
X157057665Y-76078608D02*
G75*
G03X160290000Y-76235516I1672335J1078608D01*
G01*
X157057665Y-73921392D02*
G75*
G02X160290000Y-73764484I1672335J-1078608D01*
G01*
X157688870Y-76079837D02*
G75*
G03X159770961Y-76080000I1041130J1079837D01*
G01*
X157688870Y-73920163D02*
G75*
G02X159770961Y-73920000I1041130J-1079837D01*
G01*
X160290000Y-76236000D02*
X160290000Y-76080000D01*
X160290000Y-73920000D02*
X160290000Y-73764000D01*
X180290000Y-63920000D02*
X180290000Y-63764000D01*
X180290000Y-66236000D02*
X180290000Y-66080000D01*
X177688870Y-63920163D02*
G75*
G02X179770961Y-63920000I1041130J-1079837D01*
G01*
X177688870Y-66079837D02*
G75*
G03X179770961Y-66080000I1041130J1079837D01*
G01*
X177057665Y-63921392D02*
G75*
G02X180290000Y-63764484I1672335J-1078608D01*
G01*
X177057665Y-66078608D02*
G75*
G03X180290000Y-66235516I1672335J1078608D01*
G01*
X94910000Y-50451936D02*
X94910000Y-51656064D01*
X93090000Y-50451936D02*
X93090000Y-51656064D01*
X126524936Y-49890000D02*
X127729064Y-49890000D01*
X126524936Y-51710000D02*
X127729064Y-51710000D01*
X143796936Y-51710000D02*
X145001064Y-51710000D01*
X143796936Y-49890000D02*
X145001064Y-49890000D01*
X164243936Y-49890000D02*
X165448064Y-49890000D01*
X164243936Y-51710000D02*
X165448064Y-51710000D01*
X126524936Y-72157000D02*
X127729064Y-72157000D01*
X126524936Y-70337000D02*
X127729064Y-70337000D01*
X144431936Y-70337000D02*
X145636064Y-70337000D01*
X144431936Y-72157000D02*
X145636064Y-72157000D01*
X164497936Y-72157000D02*
X165702064Y-72157000D01*
X164497936Y-70337000D02*
X165702064Y-70337000D01*
X161765064Y-63987000D02*
X160560936Y-63987000D01*
X161765064Y-65807000D02*
X160560936Y-65807000D01*
X189650000Y-73930000D02*
X189650000Y-69430000D01*
X185650000Y-75180000D02*
X187150000Y-75180000D01*
X183150000Y-69430000D02*
X183150000Y-73930000D01*
X187150000Y-68180000D02*
X185650000Y-68180000D01*
X93348564Y-66950000D02*
X92144436Y-66950000D01*
X93348564Y-65130000D02*
X92144436Y-65130000D01*
D10*
X193818571Y-58020952D02*
X193866190Y-57878095D01*
X193913809Y-57830476D01*
X194009047Y-57782857D01*
X194151904Y-57782857D01*
X194247142Y-57830476D01*
X194294761Y-57878095D01*
X194342380Y-57973333D01*
X194342380Y-58354285D01*
X193342380Y-58354285D01*
X193342380Y-58020952D01*
X193390000Y-57925714D01*
X193437619Y-57878095D01*
X193532857Y-57830476D01*
X193628095Y-57830476D01*
X193723333Y-57878095D01*
X193770952Y-57925714D01*
X193818571Y-58020952D01*
X193818571Y-58354285D01*
X193342380Y-57449523D02*
X193342380Y-56782857D01*
X194342380Y-57449523D01*
X194342380Y-56782857D01*
X194342380Y-55878095D02*
X194342380Y-56449523D01*
X194342380Y-56163809D02*
X193342380Y-56163809D01*
X193485238Y-56259047D01*
X193580476Y-56354285D01*
X193628095Y-56449523D01*
X189301428Y-53710952D02*
X189301428Y-52949047D01*
X189682380Y-53330000D02*
X188920476Y-53330000D01*
X97991904Y-48412380D02*
X97991904Y-47412380D01*
X98230000Y-47412380D01*
X98372857Y-47460000D01*
X98468095Y-47555238D01*
X98515714Y-47650476D01*
X98563333Y-47840952D01*
X98563333Y-47983809D01*
X98515714Y-48174285D01*
X98468095Y-48269523D01*
X98372857Y-48364761D01*
X98230000Y-48412380D01*
X97991904Y-48412380D01*
X99515714Y-48412380D02*
X98944285Y-48412380D01*
X99230000Y-48412380D02*
X99230000Y-47412380D01*
X99134761Y-47555238D01*
X99039523Y-47650476D01*
X98944285Y-47698095D01*
X112991904Y-48412380D02*
X112991904Y-47412380D01*
X113230000Y-47412380D01*
X113372857Y-47460000D01*
X113468095Y-47555238D01*
X113515714Y-47650476D01*
X113563333Y-47840952D01*
X113563333Y-47983809D01*
X113515714Y-48174285D01*
X113468095Y-48269523D01*
X113372857Y-48364761D01*
X113230000Y-48412380D01*
X112991904Y-48412380D01*
X113944285Y-47507619D02*
X113991904Y-47460000D01*
X114087142Y-47412380D01*
X114325238Y-47412380D01*
X114420476Y-47460000D01*
X114468095Y-47507619D01*
X114515714Y-47602857D01*
X114515714Y-47698095D01*
X114468095Y-47840952D01*
X113896666Y-48412380D01*
X114515714Y-48412380D01*
X122991904Y-48412380D02*
X122991904Y-47412380D01*
X123230000Y-47412380D01*
X123372857Y-47460000D01*
X123468095Y-47555238D01*
X123515714Y-47650476D01*
X123563333Y-47840952D01*
X123563333Y-47983809D01*
X123515714Y-48174285D01*
X123468095Y-48269523D01*
X123372857Y-48364761D01*
X123230000Y-48412380D01*
X122991904Y-48412380D01*
X123896666Y-47412380D02*
X124515714Y-47412380D01*
X124182380Y-47793333D01*
X124325238Y-47793333D01*
X124420476Y-47840952D01*
X124468095Y-47888571D01*
X124515714Y-47983809D01*
X124515714Y-48221904D01*
X124468095Y-48317142D01*
X124420476Y-48364761D01*
X124325238Y-48412380D01*
X124039523Y-48412380D01*
X123944285Y-48364761D01*
X123896666Y-48317142D01*
X132991904Y-48412380D02*
X132991904Y-47412380D01*
X133230000Y-47412380D01*
X133372857Y-47460000D01*
X133468095Y-47555238D01*
X133515714Y-47650476D01*
X133563333Y-47840952D01*
X133563333Y-47983809D01*
X133515714Y-48174285D01*
X133468095Y-48269523D01*
X133372857Y-48364761D01*
X133230000Y-48412380D01*
X132991904Y-48412380D01*
X134420476Y-47745714D02*
X134420476Y-48412380D01*
X134182380Y-47364761D02*
X133944285Y-48079047D01*
X134563333Y-48079047D01*
X117991904Y-58412380D02*
X117991904Y-57412380D01*
X118230000Y-57412380D01*
X118372857Y-57460000D01*
X118468095Y-57555238D01*
X118515714Y-57650476D01*
X118563333Y-57840952D01*
X118563333Y-57983809D01*
X118515714Y-58174285D01*
X118468095Y-58269523D01*
X118372857Y-58364761D01*
X118230000Y-58412380D01*
X117991904Y-58412380D01*
X119468095Y-57412380D02*
X118991904Y-57412380D01*
X118944285Y-57888571D01*
X118991904Y-57840952D01*
X119087142Y-57793333D01*
X119325238Y-57793333D01*
X119420476Y-57840952D01*
X119468095Y-57888571D01*
X119515714Y-57983809D01*
X119515714Y-58221904D01*
X119468095Y-58317142D01*
X119420476Y-58364761D01*
X119325238Y-58412380D01*
X119087142Y-58412380D01*
X118991904Y-58364761D01*
X118944285Y-58317142D01*
X137991904Y-58412380D02*
X137991904Y-57412380D01*
X138230000Y-57412380D01*
X138372857Y-57460000D01*
X138468095Y-57555238D01*
X138515714Y-57650476D01*
X138563333Y-57840952D01*
X138563333Y-57983809D01*
X138515714Y-58174285D01*
X138468095Y-58269523D01*
X138372857Y-58364761D01*
X138230000Y-58412380D01*
X137991904Y-58412380D01*
X139420476Y-57412380D02*
X139230000Y-57412380D01*
X139134761Y-57460000D01*
X139087142Y-57507619D01*
X138991904Y-57650476D01*
X138944285Y-57840952D01*
X138944285Y-58221904D01*
X138991904Y-58317142D01*
X139039523Y-58364761D01*
X139134761Y-58412380D01*
X139325238Y-58412380D01*
X139420476Y-58364761D01*
X139468095Y-58317142D01*
X139515714Y-58221904D01*
X139515714Y-57983809D01*
X139468095Y-57888571D01*
X139420476Y-57840952D01*
X139325238Y-57793333D01*
X139134761Y-57793333D01*
X139039523Y-57840952D01*
X138991904Y-57888571D01*
X138944285Y-57983809D01*
X157991904Y-58412380D02*
X157991904Y-57412380D01*
X158230000Y-57412380D01*
X158372857Y-57460000D01*
X158468095Y-57555238D01*
X158515714Y-57650476D01*
X158563333Y-57840952D01*
X158563333Y-57983809D01*
X158515714Y-58174285D01*
X158468095Y-58269523D01*
X158372857Y-58364761D01*
X158230000Y-58412380D01*
X157991904Y-58412380D01*
X158896666Y-57412380D02*
X159563333Y-57412380D01*
X159134761Y-58412380D01*
X97991904Y-68412380D02*
X97991904Y-67412380D01*
X98230000Y-67412380D01*
X98372857Y-67460000D01*
X98468095Y-67555238D01*
X98515714Y-67650476D01*
X98563333Y-67840952D01*
X98563333Y-67983809D01*
X98515714Y-68174285D01*
X98468095Y-68269523D01*
X98372857Y-68364761D01*
X98230000Y-68412380D01*
X97991904Y-68412380D01*
X99134761Y-67840952D02*
X99039523Y-67793333D01*
X98991904Y-67745714D01*
X98944285Y-67650476D01*
X98944285Y-67602857D01*
X98991904Y-67507619D01*
X99039523Y-67460000D01*
X99134761Y-67412380D01*
X99325238Y-67412380D01*
X99420476Y-67460000D01*
X99468095Y-67507619D01*
X99515714Y-67602857D01*
X99515714Y-67650476D01*
X99468095Y-67745714D01*
X99420476Y-67793333D01*
X99325238Y-67840952D01*
X99134761Y-67840952D01*
X99039523Y-67888571D01*
X98991904Y-67936190D01*
X98944285Y-68031428D01*
X98944285Y-68221904D01*
X98991904Y-68317142D01*
X99039523Y-68364761D01*
X99134761Y-68412380D01*
X99325238Y-68412380D01*
X99420476Y-68364761D01*
X99468095Y-68317142D01*
X99515714Y-68221904D01*
X99515714Y-68031428D01*
X99468095Y-67936190D01*
X99420476Y-67888571D01*
X99325238Y-67840952D01*
X117991904Y-78412380D02*
X117991904Y-77412380D01*
X118230000Y-77412380D01*
X118372857Y-77460000D01*
X118468095Y-77555238D01*
X118515714Y-77650476D01*
X118563333Y-77840952D01*
X118563333Y-77983809D01*
X118515714Y-78174285D01*
X118468095Y-78269523D01*
X118372857Y-78364761D01*
X118230000Y-78412380D01*
X117991904Y-78412380D01*
X119039523Y-78412380D02*
X119230000Y-78412380D01*
X119325238Y-78364761D01*
X119372857Y-78317142D01*
X119468095Y-78174285D01*
X119515714Y-77983809D01*
X119515714Y-77602857D01*
X119468095Y-77507619D01*
X119420476Y-77460000D01*
X119325238Y-77412380D01*
X119134761Y-77412380D01*
X119039523Y-77460000D01*
X118991904Y-77507619D01*
X118944285Y-77602857D01*
X118944285Y-77840952D01*
X118991904Y-77936190D01*
X119039523Y-77983809D01*
X119134761Y-78031428D01*
X119325238Y-78031428D01*
X119420476Y-77983809D01*
X119468095Y-77936190D01*
X119515714Y-77840952D01*
X137515714Y-78412380D02*
X137515714Y-77412380D01*
X137753809Y-77412380D01*
X137896666Y-77460000D01*
X137991904Y-77555238D01*
X138039523Y-77650476D01*
X138087142Y-77840952D01*
X138087142Y-77983809D01*
X138039523Y-78174285D01*
X137991904Y-78269523D01*
X137896666Y-78364761D01*
X137753809Y-78412380D01*
X137515714Y-78412380D01*
X139039523Y-78412380D02*
X138468095Y-78412380D01*
X138753809Y-78412380D02*
X138753809Y-77412380D01*
X138658571Y-77555238D01*
X138563333Y-77650476D01*
X138468095Y-77698095D01*
X139658571Y-77412380D02*
X139753809Y-77412380D01*
X139849047Y-77460000D01*
X139896666Y-77507619D01*
X139944285Y-77602857D01*
X139991904Y-77793333D01*
X139991904Y-78031428D01*
X139944285Y-78221904D01*
X139896666Y-78317142D01*
X139849047Y-78364761D01*
X139753809Y-78412380D01*
X139658571Y-78412380D01*
X139563333Y-78364761D01*
X139515714Y-78317142D01*
X139468095Y-78221904D01*
X139420476Y-78031428D01*
X139420476Y-77793333D01*
X139468095Y-77602857D01*
X139515714Y-77507619D01*
X139563333Y-77460000D01*
X139658571Y-77412380D01*
X157515714Y-78412380D02*
X157515714Y-77412380D01*
X157753809Y-77412380D01*
X157896666Y-77460000D01*
X157991904Y-77555238D01*
X158039523Y-77650476D01*
X158087142Y-77840952D01*
X158087142Y-77983809D01*
X158039523Y-78174285D01*
X157991904Y-78269523D01*
X157896666Y-78364761D01*
X157753809Y-78412380D01*
X157515714Y-78412380D01*
X159039523Y-78412380D02*
X158468095Y-78412380D01*
X158753809Y-78412380D02*
X158753809Y-77412380D01*
X158658571Y-77555238D01*
X158563333Y-77650476D01*
X158468095Y-77698095D01*
X159991904Y-78412380D02*
X159420476Y-78412380D01*
X159706190Y-78412380D02*
X159706190Y-77412380D01*
X159610952Y-77555238D01*
X159515714Y-77650476D01*
X159420476Y-77698095D01*
X177515714Y-68412380D02*
X177515714Y-67412380D01*
X177753809Y-67412380D01*
X177896666Y-67460000D01*
X177991904Y-67555238D01*
X178039523Y-67650476D01*
X178087142Y-67840952D01*
X178087142Y-67983809D01*
X178039523Y-68174285D01*
X177991904Y-68269523D01*
X177896666Y-68364761D01*
X177753809Y-68412380D01*
X177515714Y-68412380D01*
X179039523Y-68412380D02*
X178468095Y-68412380D01*
X178753809Y-68412380D02*
X178753809Y-67412380D01*
X178658571Y-67555238D01*
X178563333Y-67650476D01*
X178468095Y-67698095D01*
X179420476Y-67507619D02*
X179468095Y-67460000D01*
X179563333Y-67412380D01*
X179801428Y-67412380D01*
X179896666Y-67460000D01*
X179944285Y-67507619D01*
X179991904Y-67602857D01*
X179991904Y-67698095D01*
X179944285Y-67840952D01*
X179372857Y-68412380D01*
X179991904Y-68412380D01*
X96272380Y-51220666D02*
X95796190Y-51554000D01*
X96272380Y-51792095D02*
X95272380Y-51792095D01*
X95272380Y-51411142D01*
X95320000Y-51315904D01*
X95367619Y-51268285D01*
X95462857Y-51220666D01*
X95605714Y-51220666D01*
X95700952Y-51268285D01*
X95748571Y-51315904D01*
X95796190Y-51411142D01*
X95796190Y-51792095D01*
X95367619Y-50839714D02*
X95320000Y-50792095D01*
X95272380Y-50696857D01*
X95272380Y-50458761D01*
X95320000Y-50363523D01*
X95367619Y-50315904D01*
X95462857Y-50268285D01*
X95558095Y-50268285D01*
X95700952Y-50315904D01*
X96272380Y-50887333D01*
X96272380Y-50268285D01*
X126960333Y-49432380D02*
X126627000Y-48956190D01*
X126388904Y-49432380D02*
X126388904Y-48432380D01*
X126769857Y-48432380D01*
X126865095Y-48480000D01*
X126912714Y-48527619D01*
X126960333Y-48622857D01*
X126960333Y-48765714D01*
X126912714Y-48860952D01*
X126865095Y-48908571D01*
X126769857Y-48956190D01*
X126388904Y-48956190D01*
X127293666Y-48432380D02*
X127912714Y-48432380D01*
X127579380Y-48813333D01*
X127722238Y-48813333D01*
X127817476Y-48860952D01*
X127865095Y-48908571D01*
X127912714Y-49003809D01*
X127912714Y-49241904D01*
X127865095Y-49337142D01*
X127817476Y-49384761D01*
X127722238Y-49432380D01*
X127436523Y-49432380D01*
X127341285Y-49384761D01*
X127293666Y-49337142D01*
X144232333Y-49432380D02*
X143899000Y-48956190D01*
X143660904Y-49432380D02*
X143660904Y-48432380D01*
X144041857Y-48432380D01*
X144137095Y-48480000D01*
X144184714Y-48527619D01*
X144232333Y-48622857D01*
X144232333Y-48765714D01*
X144184714Y-48860952D01*
X144137095Y-48908571D01*
X144041857Y-48956190D01*
X143660904Y-48956190D01*
X145089476Y-48765714D02*
X145089476Y-49432380D01*
X144851380Y-48384761D02*
X144613285Y-49099047D01*
X145232333Y-49099047D01*
X164679333Y-49432380D02*
X164346000Y-48956190D01*
X164107904Y-49432380D02*
X164107904Y-48432380D01*
X164488857Y-48432380D01*
X164584095Y-48480000D01*
X164631714Y-48527619D01*
X164679333Y-48622857D01*
X164679333Y-48765714D01*
X164631714Y-48860952D01*
X164584095Y-48908571D01*
X164488857Y-48956190D01*
X164107904Y-48956190D01*
X165584095Y-48432380D02*
X165107904Y-48432380D01*
X165060285Y-48908571D01*
X165107904Y-48860952D01*
X165203142Y-48813333D01*
X165441238Y-48813333D01*
X165536476Y-48860952D01*
X165584095Y-48908571D01*
X165631714Y-49003809D01*
X165631714Y-49241904D01*
X165584095Y-49337142D01*
X165536476Y-49384761D01*
X165441238Y-49432380D01*
X165203142Y-49432380D01*
X165107904Y-49384761D01*
X165060285Y-49337142D01*
X126960333Y-69879380D02*
X126627000Y-69403190D01*
X126388904Y-69879380D02*
X126388904Y-68879380D01*
X126769857Y-68879380D01*
X126865095Y-68927000D01*
X126912714Y-68974619D01*
X126960333Y-69069857D01*
X126960333Y-69212714D01*
X126912714Y-69307952D01*
X126865095Y-69355571D01*
X126769857Y-69403190D01*
X126388904Y-69403190D01*
X127817476Y-68879380D02*
X127627000Y-68879380D01*
X127531761Y-68927000D01*
X127484142Y-68974619D01*
X127388904Y-69117476D01*
X127341285Y-69307952D01*
X127341285Y-69688904D01*
X127388904Y-69784142D01*
X127436523Y-69831761D01*
X127531761Y-69879380D01*
X127722238Y-69879380D01*
X127817476Y-69831761D01*
X127865095Y-69784142D01*
X127912714Y-69688904D01*
X127912714Y-69450809D01*
X127865095Y-69355571D01*
X127817476Y-69307952D01*
X127722238Y-69260333D01*
X127531761Y-69260333D01*
X127436523Y-69307952D01*
X127388904Y-69355571D01*
X127341285Y-69450809D01*
X144867333Y-69879380D02*
X144534000Y-69403190D01*
X144295904Y-69879380D02*
X144295904Y-68879380D01*
X144676857Y-68879380D01*
X144772095Y-68927000D01*
X144819714Y-68974619D01*
X144867333Y-69069857D01*
X144867333Y-69212714D01*
X144819714Y-69307952D01*
X144772095Y-69355571D01*
X144676857Y-69403190D01*
X144295904Y-69403190D01*
X145200666Y-68879380D02*
X145867333Y-68879380D01*
X145438761Y-69879380D01*
X164933333Y-69879380D02*
X164600000Y-69403190D01*
X164361904Y-69879380D02*
X164361904Y-68879380D01*
X164742857Y-68879380D01*
X164838095Y-68927000D01*
X164885714Y-68974619D01*
X164933333Y-69069857D01*
X164933333Y-69212714D01*
X164885714Y-69307952D01*
X164838095Y-69355571D01*
X164742857Y-69403190D01*
X164361904Y-69403190D01*
X165504761Y-69307952D02*
X165409523Y-69260333D01*
X165361904Y-69212714D01*
X165314285Y-69117476D01*
X165314285Y-69069857D01*
X165361904Y-68974619D01*
X165409523Y-68927000D01*
X165504761Y-68879380D01*
X165695238Y-68879380D01*
X165790476Y-68927000D01*
X165838095Y-68974619D01*
X165885714Y-69069857D01*
X165885714Y-69117476D01*
X165838095Y-69212714D01*
X165790476Y-69260333D01*
X165695238Y-69307952D01*
X165504761Y-69307952D01*
X165409523Y-69355571D01*
X165361904Y-69403190D01*
X165314285Y-69498428D01*
X165314285Y-69688904D01*
X165361904Y-69784142D01*
X165409523Y-69831761D01*
X165504761Y-69879380D01*
X165695238Y-69879380D01*
X165790476Y-69831761D01*
X165838095Y-69784142D01*
X165885714Y-69688904D01*
X165885714Y-69498428D01*
X165838095Y-69403190D01*
X165790476Y-69355571D01*
X165695238Y-69307952D01*
X160996333Y-67169380D02*
X160663000Y-66693190D01*
X160424904Y-67169380D02*
X160424904Y-66169380D01*
X160805857Y-66169380D01*
X160901095Y-66217000D01*
X160948714Y-66264619D01*
X160996333Y-66359857D01*
X160996333Y-66502714D01*
X160948714Y-66597952D01*
X160901095Y-66645571D01*
X160805857Y-66693190D01*
X160424904Y-66693190D01*
X161472523Y-67169380D02*
X161663000Y-67169380D01*
X161758238Y-67121761D01*
X161805857Y-67074142D01*
X161901095Y-66931285D01*
X161948714Y-66740809D01*
X161948714Y-66359857D01*
X161901095Y-66264619D01*
X161853476Y-66217000D01*
X161758238Y-66169380D01*
X161567761Y-66169380D01*
X161472523Y-66217000D01*
X161424904Y-66264619D01*
X161377285Y-66359857D01*
X161377285Y-66597952D01*
X161424904Y-66693190D01*
X161472523Y-66740809D01*
X161567761Y-66788428D01*
X161758238Y-66788428D01*
X161853476Y-66740809D01*
X161901095Y-66693190D01*
X161948714Y-66597952D01*
X182554761Y-73013333D02*
X182602380Y-72870476D01*
X182602380Y-72632380D01*
X182554761Y-72537142D01*
X182507142Y-72489523D01*
X182411904Y-72441904D01*
X182316666Y-72441904D01*
X182221428Y-72489523D01*
X182173809Y-72537142D01*
X182126190Y-72632380D01*
X182078571Y-72822857D01*
X182030952Y-72918095D01*
X181983333Y-72965714D01*
X181888095Y-73013333D01*
X181792857Y-73013333D01*
X181697619Y-72965714D01*
X181650000Y-72918095D01*
X181602380Y-72822857D01*
X181602380Y-72584761D01*
X181650000Y-72441904D01*
X181602380Y-72108571D02*
X182602380Y-71870476D01*
X181888095Y-71680000D01*
X182602380Y-71489523D01*
X181602380Y-71251428D01*
X182602380Y-70346666D02*
X182602380Y-70918095D01*
X182602380Y-70632380D02*
X181602380Y-70632380D01*
X181745238Y-70727619D01*
X181840476Y-70822857D01*
X181888095Y-70918095D01*
X92103642Y-68312380D02*
X91770309Y-67836190D01*
X91532214Y-68312380D02*
X91532214Y-67312380D01*
X91913166Y-67312380D01*
X92008404Y-67360000D01*
X92056023Y-67407619D01*
X92103642Y-67502857D01*
X92103642Y-67645714D01*
X92056023Y-67740952D01*
X92008404Y-67788571D01*
X91913166Y-67836190D01*
X91532214Y-67836190D01*
X93056023Y-68312380D02*
X92484595Y-68312380D01*
X92770309Y-68312380D02*
X92770309Y-67312380D01*
X92675071Y-67455238D01*
X92579833Y-67550476D01*
X92484595Y-67598095D01*
X93436976Y-67407619D02*
X93484595Y-67360000D01*
X93579833Y-67312380D01*
X93817928Y-67312380D01*
X93913166Y-67360000D01*
X93960785Y-67407619D01*
X94008404Y-67502857D01*
X94008404Y-67598095D01*
X93960785Y-67740952D01*
X93389357Y-68312380D01*
X94008404Y-68312380D01*
M02*
