G04 #@! TF.GenerationSoftware,KiCad,Pcbnew,(5.1.2-1)-1*
G04 #@! TF.CreationDate,2019-06-13T22:38:42+01:00*
G04 #@! TF.ProjectId,K3S_Seq_IF_Front_Panel,4b33535f-5365-4715-9f49-465f46726f6e,rev?*
G04 #@! TF.SameCoordinates,Original*
G04 #@! TF.FileFunction,Copper,L1,Top*
G04 #@! TF.FilePolarity,Positive*
%FSLAX46Y46*%
G04 Gerber Fmt 4.6, Leading zero omitted, Abs format (unit mm)*
G04 Created by KiCad (PCBNEW (5.1.2-1)-1) date 2019-06-13 22:38:42*
%MOMM*%
%LPD*%
G04 APERTURE LIST*
%ADD10R,2.000000X2.000000*%
%ADD11C,2.000000*%
%ADD12R,1.800000X1.800000*%
%ADD13C,1.800000*%
%ADD14R,1.727200X1.727200*%
%ADD15O,1.727200X1.727200*%
%ADD16C,0.100000*%
%ADD17C,1.425000*%
%ADD18C,0.800000*%
%ADD19C,0.250000*%
G04 APERTURE END LIST*
D10*
X186690000Y-53340000D03*
D11*
X186690000Y-60940000D03*
D12*
X100000000Y-45000000D03*
D13*
X97460000Y-45000000D03*
X112460000Y-45000000D03*
D12*
X115000000Y-45000000D03*
X125000000Y-45000000D03*
D13*
X122460000Y-45000000D03*
X132460000Y-45000000D03*
D12*
X135000000Y-45000000D03*
X120000000Y-55000000D03*
D13*
X117460000Y-55000000D03*
X137460000Y-55000000D03*
D12*
X140000000Y-55000000D03*
X160000000Y-55000000D03*
D13*
X157460000Y-55000000D03*
X97460000Y-65000000D03*
D12*
X100000000Y-65000000D03*
X120000000Y-75000000D03*
D13*
X117460000Y-75000000D03*
X137460000Y-75000000D03*
D12*
X140000000Y-75000000D03*
X160000000Y-75000000D03*
D13*
X157460000Y-75000000D03*
X177460000Y-65000000D03*
D12*
X180000000Y-65000000D03*
D14*
X83820000Y-73660000D03*
D15*
X86360000Y-73660000D03*
X83820000Y-71120000D03*
X86360000Y-71120000D03*
X83820000Y-68580000D03*
X86360000Y-68580000D03*
X83820000Y-66040000D03*
X86360000Y-66040000D03*
X83820000Y-63500000D03*
X86360000Y-63500000D03*
X83820000Y-60960000D03*
X86360000Y-60960000D03*
X83820000Y-58420000D03*
X86360000Y-58420000D03*
X83820000Y-55880000D03*
X86360000Y-55880000D03*
D16*
G36*
X94649504Y-48855204D02*
G01*
X94673773Y-48858804D01*
X94697571Y-48864765D01*
X94720671Y-48873030D01*
X94742849Y-48883520D01*
X94763893Y-48896133D01*
X94783598Y-48910747D01*
X94801777Y-48927223D01*
X94818253Y-48945402D01*
X94832867Y-48965107D01*
X94845480Y-48986151D01*
X94855970Y-49008329D01*
X94864235Y-49031429D01*
X94870196Y-49055227D01*
X94873796Y-49079496D01*
X94875000Y-49104000D01*
X94875000Y-50029000D01*
X94873796Y-50053504D01*
X94870196Y-50077773D01*
X94864235Y-50101571D01*
X94855970Y-50124671D01*
X94845480Y-50146849D01*
X94832867Y-50167893D01*
X94818253Y-50187598D01*
X94801777Y-50205777D01*
X94783598Y-50222253D01*
X94763893Y-50236867D01*
X94742849Y-50249480D01*
X94720671Y-50259970D01*
X94697571Y-50268235D01*
X94673773Y-50274196D01*
X94649504Y-50277796D01*
X94625000Y-50279000D01*
X93375000Y-50279000D01*
X93350496Y-50277796D01*
X93326227Y-50274196D01*
X93302429Y-50268235D01*
X93279329Y-50259970D01*
X93257151Y-50249480D01*
X93236107Y-50236867D01*
X93216402Y-50222253D01*
X93198223Y-50205777D01*
X93181747Y-50187598D01*
X93167133Y-50167893D01*
X93154520Y-50146849D01*
X93144030Y-50124671D01*
X93135765Y-50101571D01*
X93129804Y-50077773D01*
X93126204Y-50053504D01*
X93125000Y-50029000D01*
X93125000Y-49104000D01*
X93126204Y-49079496D01*
X93129804Y-49055227D01*
X93135765Y-49031429D01*
X93144030Y-49008329D01*
X93154520Y-48986151D01*
X93167133Y-48965107D01*
X93181747Y-48945402D01*
X93198223Y-48927223D01*
X93216402Y-48910747D01*
X93236107Y-48896133D01*
X93257151Y-48883520D01*
X93279329Y-48873030D01*
X93302429Y-48864765D01*
X93326227Y-48858804D01*
X93350496Y-48855204D01*
X93375000Y-48854000D01*
X94625000Y-48854000D01*
X94649504Y-48855204D01*
X94649504Y-48855204D01*
G37*
D17*
X94000000Y-49566500D03*
D16*
G36*
X94649504Y-51830204D02*
G01*
X94673773Y-51833804D01*
X94697571Y-51839765D01*
X94720671Y-51848030D01*
X94742849Y-51858520D01*
X94763893Y-51871133D01*
X94783598Y-51885747D01*
X94801777Y-51902223D01*
X94818253Y-51920402D01*
X94832867Y-51940107D01*
X94845480Y-51961151D01*
X94855970Y-51983329D01*
X94864235Y-52006429D01*
X94870196Y-52030227D01*
X94873796Y-52054496D01*
X94875000Y-52079000D01*
X94875000Y-53004000D01*
X94873796Y-53028504D01*
X94870196Y-53052773D01*
X94864235Y-53076571D01*
X94855970Y-53099671D01*
X94845480Y-53121849D01*
X94832867Y-53142893D01*
X94818253Y-53162598D01*
X94801777Y-53180777D01*
X94783598Y-53197253D01*
X94763893Y-53211867D01*
X94742849Y-53224480D01*
X94720671Y-53234970D01*
X94697571Y-53243235D01*
X94673773Y-53249196D01*
X94649504Y-53252796D01*
X94625000Y-53254000D01*
X93375000Y-53254000D01*
X93350496Y-53252796D01*
X93326227Y-53249196D01*
X93302429Y-53243235D01*
X93279329Y-53234970D01*
X93257151Y-53224480D01*
X93236107Y-53211867D01*
X93216402Y-53197253D01*
X93198223Y-53180777D01*
X93181747Y-53162598D01*
X93167133Y-53142893D01*
X93154520Y-53121849D01*
X93144030Y-53099671D01*
X93135765Y-53076571D01*
X93129804Y-53052773D01*
X93126204Y-53028504D01*
X93125000Y-53004000D01*
X93125000Y-52079000D01*
X93126204Y-52054496D01*
X93129804Y-52030227D01*
X93135765Y-52006429D01*
X93144030Y-51983329D01*
X93154520Y-51961151D01*
X93167133Y-51940107D01*
X93181747Y-51920402D01*
X93198223Y-51902223D01*
X93216402Y-51885747D01*
X93236107Y-51871133D01*
X93257151Y-51858520D01*
X93279329Y-51848030D01*
X93302429Y-51839765D01*
X93326227Y-51833804D01*
X93350496Y-51830204D01*
X93375000Y-51829000D01*
X94625000Y-51829000D01*
X94649504Y-51830204D01*
X94649504Y-51830204D01*
G37*
D17*
X94000000Y-52541500D03*
D16*
G36*
X126126504Y-49926204D02*
G01*
X126150773Y-49929804D01*
X126174571Y-49935765D01*
X126197671Y-49944030D01*
X126219849Y-49954520D01*
X126240893Y-49967133D01*
X126260598Y-49981747D01*
X126278777Y-49998223D01*
X126295253Y-50016402D01*
X126309867Y-50036107D01*
X126322480Y-50057151D01*
X126332970Y-50079329D01*
X126341235Y-50102429D01*
X126347196Y-50126227D01*
X126350796Y-50150496D01*
X126352000Y-50175000D01*
X126352000Y-51425000D01*
X126350796Y-51449504D01*
X126347196Y-51473773D01*
X126341235Y-51497571D01*
X126332970Y-51520671D01*
X126322480Y-51542849D01*
X126309867Y-51563893D01*
X126295253Y-51583598D01*
X126278777Y-51601777D01*
X126260598Y-51618253D01*
X126240893Y-51632867D01*
X126219849Y-51645480D01*
X126197671Y-51655970D01*
X126174571Y-51664235D01*
X126150773Y-51670196D01*
X126126504Y-51673796D01*
X126102000Y-51675000D01*
X125177000Y-51675000D01*
X125152496Y-51673796D01*
X125128227Y-51670196D01*
X125104429Y-51664235D01*
X125081329Y-51655970D01*
X125059151Y-51645480D01*
X125038107Y-51632867D01*
X125018402Y-51618253D01*
X125000223Y-51601777D01*
X124983747Y-51583598D01*
X124969133Y-51563893D01*
X124956520Y-51542849D01*
X124946030Y-51520671D01*
X124937765Y-51497571D01*
X124931804Y-51473773D01*
X124928204Y-51449504D01*
X124927000Y-51425000D01*
X124927000Y-50175000D01*
X124928204Y-50150496D01*
X124931804Y-50126227D01*
X124937765Y-50102429D01*
X124946030Y-50079329D01*
X124956520Y-50057151D01*
X124969133Y-50036107D01*
X124983747Y-50016402D01*
X125000223Y-49998223D01*
X125018402Y-49981747D01*
X125038107Y-49967133D01*
X125059151Y-49954520D01*
X125081329Y-49944030D01*
X125104429Y-49935765D01*
X125128227Y-49929804D01*
X125152496Y-49926204D01*
X125177000Y-49925000D01*
X126102000Y-49925000D01*
X126126504Y-49926204D01*
X126126504Y-49926204D01*
G37*
D17*
X125639500Y-50800000D03*
D16*
G36*
X129101504Y-49926204D02*
G01*
X129125773Y-49929804D01*
X129149571Y-49935765D01*
X129172671Y-49944030D01*
X129194849Y-49954520D01*
X129215893Y-49967133D01*
X129235598Y-49981747D01*
X129253777Y-49998223D01*
X129270253Y-50016402D01*
X129284867Y-50036107D01*
X129297480Y-50057151D01*
X129307970Y-50079329D01*
X129316235Y-50102429D01*
X129322196Y-50126227D01*
X129325796Y-50150496D01*
X129327000Y-50175000D01*
X129327000Y-51425000D01*
X129325796Y-51449504D01*
X129322196Y-51473773D01*
X129316235Y-51497571D01*
X129307970Y-51520671D01*
X129297480Y-51542849D01*
X129284867Y-51563893D01*
X129270253Y-51583598D01*
X129253777Y-51601777D01*
X129235598Y-51618253D01*
X129215893Y-51632867D01*
X129194849Y-51645480D01*
X129172671Y-51655970D01*
X129149571Y-51664235D01*
X129125773Y-51670196D01*
X129101504Y-51673796D01*
X129077000Y-51675000D01*
X128152000Y-51675000D01*
X128127496Y-51673796D01*
X128103227Y-51670196D01*
X128079429Y-51664235D01*
X128056329Y-51655970D01*
X128034151Y-51645480D01*
X128013107Y-51632867D01*
X127993402Y-51618253D01*
X127975223Y-51601777D01*
X127958747Y-51583598D01*
X127944133Y-51563893D01*
X127931520Y-51542849D01*
X127921030Y-51520671D01*
X127912765Y-51497571D01*
X127906804Y-51473773D01*
X127903204Y-51449504D01*
X127902000Y-51425000D01*
X127902000Y-50175000D01*
X127903204Y-50150496D01*
X127906804Y-50126227D01*
X127912765Y-50102429D01*
X127921030Y-50079329D01*
X127931520Y-50057151D01*
X127944133Y-50036107D01*
X127958747Y-50016402D01*
X127975223Y-49998223D01*
X127993402Y-49981747D01*
X128013107Y-49967133D01*
X128034151Y-49954520D01*
X128056329Y-49944030D01*
X128079429Y-49935765D01*
X128103227Y-49929804D01*
X128127496Y-49926204D01*
X128152000Y-49925000D01*
X129077000Y-49925000D01*
X129101504Y-49926204D01*
X129101504Y-49926204D01*
G37*
D17*
X128614500Y-50800000D03*
D16*
G36*
X146373504Y-49926204D02*
G01*
X146397773Y-49929804D01*
X146421571Y-49935765D01*
X146444671Y-49944030D01*
X146466849Y-49954520D01*
X146487893Y-49967133D01*
X146507598Y-49981747D01*
X146525777Y-49998223D01*
X146542253Y-50016402D01*
X146556867Y-50036107D01*
X146569480Y-50057151D01*
X146579970Y-50079329D01*
X146588235Y-50102429D01*
X146594196Y-50126227D01*
X146597796Y-50150496D01*
X146599000Y-50175000D01*
X146599000Y-51425000D01*
X146597796Y-51449504D01*
X146594196Y-51473773D01*
X146588235Y-51497571D01*
X146579970Y-51520671D01*
X146569480Y-51542849D01*
X146556867Y-51563893D01*
X146542253Y-51583598D01*
X146525777Y-51601777D01*
X146507598Y-51618253D01*
X146487893Y-51632867D01*
X146466849Y-51645480D01*
X146444671Y-51655970D01*
X146421571Y-51664235D01*
X146397773Y-51670196D01*
X146373504Y-51673796D01*
X146349000Y-51675000D01*
X145424000Y-51675000D01*
X145399496Y-51673796D01*
X145375227Y-51670196D01*
X145351429Y-51664235D01*
X145328329Y-51655970D01*
X145306151Y-51645480D01*
X145285107Y-51632867D01*
X145265402Y-51618253D01*
X145247223Y-51601777D01*
X145230747Y-51583598D01*
X145216133Y-51563893D01*
X145203520Y-51542849D01*
X145193030Y-51520671D01*
X145184765Y-51497571D01*
X145178804Y-51473773D01*
X145175204Y-51449504D01*
X145174000Y-51425000D01*
X145174000Y-50175000D01*
X145175204Y-50150496D01*
X145178804Y-50126227D01*
X145184765Y-50102429D01*
X145193030Y-50079329D01*
X145203520Y-50057151D01*
X145216133Y-50036107D01*
X145230747Y-50016402D01*
X145247223Y-49998223D01*
X145265402Y-49981747D01*
X145285107Y-49967133D01*
X145306151Y-49954520D01*
X145328329Y-49944030D01*
X145351429Y-49935765D01*
X145375227Y-49929804D01*
X145399496Y-49926204D01*
X145424000Y-49925000D01*
X146349000Y-49925000D01*
X146373504Y-49926204D01*
X146373504Y-49926204D01*
G37*
D17*
X145886500Y-50800000D03*
D16*
G36*
X143398504Y-49926204D02*
G01*
X143422773Y-49929804D01*
X143446571Y-49935765D01*
X143469671Y-49944030D01*
X143491849Y-49954520D01*
X143512893Y-49967133D01*
X143532598Y-49981747D01*
X143550777Y-49998223D01*
X143567253Y-50016402D01*
X143581867Y-50036107D01*
X143594480Y-50057151D01*
X143604970Y-50079329D01*
X143613235Y-50102429D01*
X143619196Y-50126227D01*
X143622796Y-50150496D01*
X143624000Y-50175000D01*
X143624000Y-51425000D01*
X143622796Y-51449504D01*
X143619196Y-51473773D01*
X143613235Y-51497571D01*
X143604970Y-51520671D01*
X143594480Y-51542849D01*
X143581867Y-51563893D01*
X143567253Y-51583598D01*
X143550777Y-51601777D01*
X143532598Y-51618253D01*
X143512893Y-51632867D01*
X143491849Y-51645480D01*
X143469671Y-51655970D01*
X143446571Y-51664235D01*
X143422773Y-51670196D01*
X143398504Y-51673796D01*
X143374000Y-51675000D01*
X142449000Y-51675000D01*
X142424496Y-51673796D01*
X142400227Y-51670196D01*
X142376429Y-51664235D01*
X142353329Y-51655970D01*
X142331151Y-51645480D01*
X142310107Y-51632867D01*
X142290402Y-51618253D01*
X142272223Y-51601777D01*
X142255747Y-51583598D01*
X142241133Y-51563893D01*
X142228520Y-51542849D01*
X142218030Y-51520671D01*
X142209765Y-51497571D01*
X142203804Y-51473773D01*
X142200204Y-51449504D01*
X142199000Y-51425000D01*
X142199000Y-50175000D01*
X142200204Y-50150496D01*
X142203804Y-50126227D01*
X142209765Y-50102429D01*
X142218030Y-50079329D01*
X142228520Y-50057151D01*
X142241133Y-50036107D01*
X142255747Y-50016402D01*
X142272223Y-49998223D01*
X142290402Y-49981747D01*
X142310107Y-49967133D01*
X142331151Y-49954520D01*
X142353329Y-49944030D01*
X142376429Y-49935765D01*
X142400227Y-49929804D01*
X142424496Y-49926204D01*
X142449000Y-49925000D01*
X143374000Y-49925000D01*
X143398504Y-49926204D01*
X143398504Y-49926204D01*
G37*
D17*
X142911500Y-50800000D03*
D16*
G36*
X163845504Y-49926204D02*
G01*
X163869773Y-49929804D01*
X163893571Y-49935765D01*
X163916671Y-49944030D01*
X163938849Y-49954520D01*
X163959893Y-49967133D01*
X163979598Y-49981747D01*
X163997777Y-49998223D01*
X164014253Y-50016402D01*
X164028867Y-50036107D01*
X164041480Y-50057151D01*
X164051970Y-50079329D01*
X164060235Y-50102429D01*
X164066196Y-50126227D01*
X164069796Y-50150496D01*
X164071000Y-50175000D01*
X164071000Y-51425000D01*
X164069796Y-51449504D01*
X164066196Y-51473773D01*
X164060235Y-51497571D01*
X164051970Y-51520671D01*
X164041480Y-51542849D01*
X164028867Y-51563893D01*
X164014253Y-51583598D01*
X163997777Y-51601777D01*
X163979598Y-51618253D01*
X163959893Y-51632867D01*
X163938849Y-51645480D01*
X163916671Y-51655970D01*
X163893571Y-51664235D01*
X163869773Y-51670196D01*
X163845504Y-51673796D01*
X163821000Y-51675000D01*
X162896000Y-51675000D01*
X162871496Y-51673796D01*
X162847227Y-51670196D01*
X162823429Y-51664235D01*
X162800329Y-51655970D01*
X162778151Y-51645480D01*
X162757107Y-51632867D01*
X162737402Y-51618253D01*
X162719223Y-51601777D01*
X162702747Y-51583598D01*
X162688133Y-51563893D01*
X162675520Y-51542849D01*
X162665030Y-51520671D01*
X162656765Y-51497571D01*
X162650804Y-51473773D01*
X162647204Y-51449504D01*
X162646000Y-51425000D01*
X162646000Y-50175000D01*
X162647204Y-50150496D01*
X162650804Y-50126227D01*
X162656765Y-50102429D01*
X162665030Y-50079329D01*
X162675520Y-50057151D01*
X162688133Y-50036107D01*
X162702747Y-50016402D01*
X162719223Y-49998223D01*
X162737402Y-49981747D01*
X162757107Y-49967133D01*
X162778151Y-49954520D01*
X162800329Y-49944030D01*
X162823429Y-49935765D01*
X162847227Y-49929804D01*
X162871496Y-49926204D01*
X162896000Y-49925000D01*
X163821000Y-49925000D01*
X163845504Y-49926204D01*
X163845504Y-49926204D01*
G37*
D17*
X163358500Y-50800000D03*
D16*
G36*
X166820504Y-49926204D02*
G01*
X166844773Y-49929804D01*
X166868571Y-49935765D01*
X166891671Y-49944030D01*
X166913849Y-49954520D01*
X166934893Y-49967133D01*
X166954598Y-49981747D01*
X166972777Y-49998223D01*
X166989253Y-50016402D01*
X167003867Y-50036107D01*
X167016480Y-50057151D01*
X167026970Y-50079329D01*
X167035235Y-50102429D01*
X167041196Y-50126227D01*
X167044796Y-50150496D01*
X167046000Y-50175000D01*
X167046000Y-51425000D01*
X167044796Y-51449504D01*
X167041196Y-51473773D01*
X167035235Y-51497571D01*
X167026970Y-51520671D01*
X167016480Y-51542849D01*
X167003867Y-51563893D01*
X166989253Y-51583598D01*
X166972777Y-51601777D01*
X166954598Y-51618253D01*
X166934893Y-51632867D01*
X166913849Y-51645480D01*
X166891671Y-51655970D01*
X166868571Y-51664235D01*
X166844773Y-51670196D01*
X166820504Y-51673796D01*
X166796000Y-51675000D01*
X165871000Y-51675000D01*
X165846496Y-51673796D01*
X165822227Y-51670196D01*
X165798429Y-51664235D01*
X165775329Y-51655970D01*
X165753151Y-51645480D01*
X165732107Y-51632867D01*
X165712402Y-51618253D01*
X165694223Y-51601777D01*
X165677747Y-51583598D01*
X165663133Y-51563893D01*
X165650520Y-51542849D01*
X165640030Y-51520671D01*
X165631765Y-51497571D01*
X165625804Y-51473773D01*
X165622204Y-51449504D01*
X165621000Y-51425000D01*
X165621000Y-50175000D01*
X165622204Y-50150496D01*
X165625804Y-50126227D01*
X165631765Y-50102429D01*
X165640030Y-50079329D01*
X165650520Y-50057151D01*
X165663133Y-50036107D01*
X165677747Y-50016402D01*
X165694223Y-49998223D01*
X165712402Y-49981747D01*
X165732107Y-49967133D01*
X165753151Y-49954520D01*
X165775329Y-49944030D01*
X165798429Y-49935765D01*
X165822227Y-49929804D01*
X165846496Y-49926204D01*
X165871000Y-49925000D01*
X166796000Y-49925000D01*
X166820504Y-49926204D01*
X166820504Y-49926204D01*
G37*
D17*
X166333500Y-50800000D03*
D16*
G36*
X129101504Y-70373204D02*
G01*
X129125773Y-70376804D01*
X129149571Y-70382765D01*
X129172671Y-70391030D01*
X129194849Y-70401520D01*
X129215893Y-70414133D01*
X129235598Y-70428747D01*
X129253777Y-70445223D01*
X129270253Y-70463402D01*
X129284867Y-70483107D01*
X129297480Y-70504151D01*
X129307970Y-70526329D01*
X129316235Y-70549429D01*
X129322196Y-70573227D01*
X129325796Y-70597496D01*
X129327000Y-70622000D01*
X129327000Y-71872000D01*
X129325796Y-71896504D01*
X129322196Y-71920773D01*
X129316235Y-71944571D01*
X129307970Y-71967671D01*
X129297480Y-71989849D01*
X129284867Y-72010893D01*
X129270253Y-72030598D01*
X129253777Y-72048777D01*
X129235598Y-72065253D01*
X129215893Y-72079867D01*
X129194849Y-72092480D01*
X129172671Y-72102970D01*
X129149571Y-72111235D01*
X129125773Y-72117196D01*
X129101504Y-72120796D01*
X129077000Y-72122000D01*
X128152000Y-72122000D01*
X128127496Y-72120796D01*
X128103227Y-72117196D01*
X128079429Y-72111235D01*
X128056329Y-72102970D01*
X128034151Y-72092480D01*
X128013107Y-72079867D01*
X127993402Y-72065253D01*
X127975223Y-72048777D01*
X127958747Y-72030598D01*
X127944133Y-72010893D01*
X127931520Y-71989849D01*
X127921030Y-71967671D01*
X127912765Y-71944571D01*
X127906804Y-71920773D01*
X127903204Y-71896504D01*
X127902000Y-71872000D01*
X127902000Y-70622000D01*
X127903204Y-70597496D01*
X127906804Y-70573227D01*
X127912765Y-70549429D01*
X127921030Y-70526329D01*
X127931520Y-70504151D01*
X127944133Y-70483107D01*
X127958747Y-70463402D01*
X127975223Y-70445223D01*
X127993402Y-70428747D01*
X128013107Y-70414133D01*
X128034151Y-70401520D01*
X128056329Y-70391030D01*
X128079429Y-70382765D01*
X128103227Y-70376804D01*
X128127496Y-70373204D01*
X128152000Y-70372000D01*
X129077000Y-70372000D01*
X129101504Y-70373204D01*
X129101504Y-70373204D01*
G37*
D17*
X128614500Y-71247000D03*
D16*
G36*
X126126504Y-70373204D02*
G01*
X126150773Y-70376804D01*
X126174571Y-70382765D01*
X126197671Y-70391030D01*
X126219849Y-70401520D01*
X126240893Y-70414133D01*
X126260598Y-70428747D01*
X126278777Y-70445223D01*
X126295253Y-70463402D01*
X126309867Y-70483107D01*
X126322480Y-70504151D01*
X126332970Y-70526329D01*
X126341235Y-70549429D01*
X126347196Y-70573227D01*
X126350796Y-70597496D01*
X126352000Y-70622000D01*
X126352000Y-71872000D01*
X126350796Y-71896504D01*
X126347196Y-71920773D01*
X126341235Y-71944571D01*
X126332970Y-71967671D01*
X126322480Y-71989849D01*
X126309867Y-72010893D01*
X126295253Y-72030598D01*
X126278777Y-72048777D01*
X126260598Y-72065253D01*
X126240893Y-72079867D01*
X126219849Y-72092480D01*
X126197671Y-72102970D01*
X126174571Y-72111235D01*
X126150773Y-72117196D01*
X126126504Y-72120796D01*
X126102000Y-72122000D01*
X125177000Y-72122000D01*
X125152496Y-72120796D01*
X125128227Y-72117196D01*
X125104429Y-72111235D01*
X125081329Y-72102970D01*
X125059151Y-72092480D01*
X125038107Y-72079867D01*
X125018402Y-72065253D01*
X125000223Y-72048777D01*
X124983747Y-72030598D01*
X124969133Y-72010893D01*
X124956520Y-71989849D01*
X124946030Y-71967671D01*
X124937765Y-71944571D01*
X124931804Y-71920773D01*
X124928204Y-71896504D01*
X124927000Y-71872000D01*
X124927000Y-70622000D01*
X124928204Y-70597496D01*
X124931804Y-70573227D01*
X124937765Y-70549429D01*
X124946030Y-70526329D01*
X124956520Y-70504151D01*
X124969133Y-70483107D01*
X124983747Y-70463402D01*
X125000223Y-70445223D01*
X125018402Y-70428747D01*
X125038107Y-70414133D01*
X125059151Y-70401520D01*
X125081329Y-70391030D01*
X125104429Y-70382765D01*
X125128227Y-70376804D01*
X125152496Y-70373204D01*
X125177000Y-70372000D01*
X126102000Y-70372000D01*
X126126504Y-70373204D01*
X126126504Y-70373204D01*
G37*
D17*
X125639500Y-71247000D03*
D16*
G36*
X144033504Y-70373204D02*
G01*
X144057773Y-70376804D01*
X144081571Y-70382765D01*
X144104671Y-70391030D01*
X144126849Y-70401520D01*
X144147893Y-70414133D01*
X144167598Y-70428747D01*
X144185777Y-70445223D01*
X144202253Y-70463402D01*
X144216867Y-70483107D01*
X144229480Y-70504151D01*
X144239970Y-70526329D01*
X144248235Y-70549429D01*
X144254196Y-70573227D01*
X144257796Y-70597496D01*
X144259000Y-70622000D01*
X144259000Y-71872000D01*
X144257796Y-71896504D01*
X144254196Y-71920773D01*
X144248235Y-71944571D01*
X144239970Y-71967671D01*
X144229480Y-71989849D01*
X144216867Y-72010893D01*
X144202253Y-72030598D01*
X144185777Y-72048777D01*
X144167598Y-72065253D01*
X144147893Y-72079867D01*
X144126849Y-72092480D01*
X144104671Y-72102970D01*
X144081571Y-72111235D01*
X144057773Y-72117196D01*
X144033504Y-72120796D01*
X144009000Y-72122000D01*
X143084000Y-72122000D01*
X143059496Y-72120796D01*
X143035227Y-72117196D01*
X143011429Y-72111235D01*
X142988329Y-72102970D01*
X142966151Y-72092480D01*
X142945107Y-72079867D01*
X142925402Y-72065253D01*
X142907223Y-72048777D01*
X142890747Y-72030598D01*
X142876133Y-72010893D01*
X142863520Y-71989849D01*
X142853030Y-71967671D01*
X142844765Y-71944571D01*
X142838804Y-71920773D01*
X142835204Y-71896504D01*
X142834000Y-71872000D01*
X142834000Y-70622000D01*
X142835204Y-70597496D01*
X142838804Y-70573227D01*
X142844765Y-70549429D01*
X142853030Y-70526329D01*
X142863520Y-70504151D01*
X142876133Y-70483107D01*
X142890747Y-70463402D01*
X142907223Y-70445223D01*
X142925402Y-70428747D01*
X142945107Y-70414133D01*
X142966151Y-70401520D01*
X142988329Y-70391030D01*
X143011429Y-70382765D01*
X143035227Y-70376804D01*
X143059496Y-70373204D01*
X143084000Y-70372000D01*
X144009000Y-70372000D01*
X144033504Y-70373204D01*
X144033504Y-70373204D01*
G37*
D17*
X143546500Y-71247000D03*
D16*
G36*
X147008504Y-70373204D02*
G01*
X147032773Y-70376804D01*
X147056571Y-70382765D01*
X147079671Y-70391030D01*
X147101849Y-70401520D01*
X147122893Y-70414133D01*
X147142598Y-70428747D01*
X147160777Y-70445223D01*
X147177253Y-70463402D01*
X147191867Y-70483107D01*
X147204480Y-70504151D01*
X147214970Y-70526329D01*
X147223235Y-70549429D01*
X147229196Y-70573227D01*
X147232796Y-70597496D01*
X147234000Y-70622000D01*
X147234000Y-71872000D01*
X147232796Y-71896504D01*
X147229196Y-71920773D01*
X147223235Y-71944571D01*
X147214970Y-71967671D01*
X147204480Y-71989849D01*
X147191867Y-72010893D01*
X147177253Y-72030598D01*
X147160777Y-72048777D01*
X147142598Y-72065253D01*
X147122893Y-72079867D01*
X147101849Y-72092480D01*
X147079671Y-72102970D01*
X147056571Y-72111235D01*
X147032773Y-72117196D01*
X147008504Y-72120796D01*
X146984000Y-72122000D01*
X146059000Y-72122000D01*
X146034496Y-72120796D01*
X146010227Y-72117196D01*
X145986429Y-72111235D01*
X145963329Y-72102970D01*
X145941151Y-72092480D01*
X145920107Y-72079867D01*
X145900402Y-72065253D01*
X145882223Y-72048777D01*
X145865747Y-72030598D01*
X145851133Y-72010893D01*
X145838520Y-71989849D01*
X145828030Y-71967671D01*
X145819765Y-71944571D01*
X145813804Y-71920773D01*
X145810204Y-71896504D01*
X145809000Y-71872000D01*
X145809000Y-70622000D01*
X145810204Y-70597496D01*
X145813804Y-70573227D01*
X145819765Y-70549429D01*
X145828030Y-70526329D01*
X145838520Y-70504151D01*
X145851133Y-70483107D01*
X145865747Y-70463402D01*
X145882223Y-70445223D01*
X145900402Y-70428747D01*
X145920107Y-70414133D01*
X145941151Y-70401520D01*
X145963329Y-70391030D01*
X145986429Y-70382765D01*
X146010227Y-70376804D01*
X146034496Y-70373204D01*
X146059000Y-70372000D01*
X146984000Y-70372000D01*
X147008504Y-70373204D01*
X147008504Y-70373204D01*
G37*
D17*
X146521500Y-71247000D03*
D16*
G36*
X167074504Y-70373204D02*
G01*
X167098773Y-70376804D01*
X167122571Y-70382765D01*
X167145671Y-70391030D01*
X167167849Y-70401520D01*
X167188893Y-70414133D01*
X167208598Y-70428747D01*
X167226777Y-70445223D01*
X167243253Y-70463402D01*
X167257867Y-70483107D01*
X167270480Y-70504151D01*
X167280970Y-70526329D01*
X167289235Y-70549429D01*
X167295196Y-70573227D01*
X167298796Y-70597496D01*
X167300000Y-70622000D01*
X167300000Y-71872000D01*
X167298796Y-71896504D01*
X167295196Y-71920773D01*
X167289235Y-71944571D01*
X167280970Y-71967671D01*
X167270480Y-71989849D01*
X167257867Y-72010893D01*
X167243253Y-72030598D01*
X167226777Y-72048777D01*
X167208598Y-72065253D01*
X167188893Y-72079867D01*
X167167849Y-72092480D01*
X167145671Y-72102970D01*
X167122571Y-72111235D01*
X167098773Y-72117196D01*
X167074504Y-72120796D01*
X167050000Y-72122000D01*
X166125000Y-72122000D01*
X166100496Y-72120796D01*
X166076227Y-72117196D01*
X166052429Y-72111235D01*
X166029329Y-72102970D01*
X166007151Y-72092480D01*
X165986107Y-72079867D01*
X165966402Y-72065253D01*
X165948223Y-72048777D01*
X165931747Y-72030598D01*
X165917133Y-72010893D01*
X165904520Y-71989849D01*
X165894030Y-71967671D01*
X165885765Y-71944571D01*
X165879804Y-71920773D01*
X165876204Y-71896504D01*
X165875000Y-71872000D01*
X165875000Y-70622000D01*
X165876204Y-70597496D01*
X165879804Y-70573227D01*
X165885765Y-70549429D01*
X165894030Y-70526329D01*
X165904520Y-70504151D01*
X165917133Y-70483107D01*
X165931747Y-70463402D01*
X165948223Y-70445223D01*
X165966402Y-70428747D01*
X165986107Y-70414133D01*
X166007151Y-70401520D01*
X166029329Y-70391030D01*
X166052429Y-70382765D01*
X166076227Y-70376804D01*
X166100496Y-70373204D01*
X166125000Y-70372000D01*
X167050000Y-70372000D01*
X167074504Y-70373204D01*
X167074504Y-70373204D01*
G37*
D17*
X166587500Y-71247000D03*
D16*
G36*
X164099504Y-70373204D02*
G01*
X164123773Y-70376804D01*
X164147571Y-70382765D01*
X164170671Y-70391030D01*
X164192849Y-70401520D01*
X164213893Y-70414133D01*
X164233598Y-70428747D01*
X164251777Y-70445223D01*
X164268253Y-70463402D01*
X164282867Y-70483107D01*
X164295480Y-70504151D01*
X164305970Y-70526329D01*
X164314235Y-70549429D01*
X164320196Y-70573227D01*
X164323796Y-70597496D01*
X164325000Y-70622000D01*
X164325000Y-71872000D01*
X164323796Y-71896504D01*
X164320196Y-71920773D01*
X164314235Y-71944571D01*
X164305970Y-71967671D01*
X164295480Y-71989849D01*
X164282867Y-72010893D01*
X164268253Y-72030598D01*
X164251777Y-72048777D01*
X164233598Y-72065253D01*
X164213893Y-72079867D01*
X164192849Y-72092480D01*
X164170671Y-72102970D01*
X164147571Y-72111235D01*
X164123773Y-72117196D01*
X164099504Y-72120796D01*
X164075000Y-72122000D01*
X163150000Y-72122000D01*
X163125496Y-72120796D01*
X163101227Y-72117196D01*
X163077429Y-72111235D01*
X163054329Y-72102970D01*
X163032151Y-72092480D01*
X163011107Y-72079867D01*
X162991402Y-72065253D01*
X162973223Y-72048777D01*
X162956747Y-72030598D01*
X162942133Y-72010893D01*
X162929520Y-71989849D01*
X162919030Y-71967671D01*
X162910765Y-71944571D01*
X162904804Y-71920773D01*
X162901204Y-71896504D01*
X162900000Y-71872000D01*
X162900000Y-70622000D01*
X162901204Y-70597496D01*
X162904804Y-70573227D01*
X162910765Y-70549429D01*
X162919030Y-70526329D01*
X162929520Y-70504151D01*
X162942133Y-70483107D01*
X162956747Y-70463402D01*
X162973223Y-70445223D01*
X162991402Y-70428747D01*
X163011107Y-70414133D01*
X163032151Y-70401520D01*
X163054329Y-70391030D01*
X163077429Y-70382765D01*
X163101227Y-70376804D01*
X163125496Y-70373204D01*
X163150000Y-70372000D01*
X164075000Y-70372000D01*
X164099504Y-70373204D01*
X164099504Y-70373204D01*
G37*
D17*
X163612500Y-71247000D03*
D16*
G36*
X160162504Y-64023204D02*
G01*
X160186773Y-64026804D01*
X160210571Y-64032765D01*
X160233671Y-64041030D01*
X160255849Y-64051520D01*
X160276893Y-64064133D01*
X160296598Y-64078747D01*
X160314777Y-64095223D01*
X160331253Y-64113402D01*
X160345867Y-64133107D01*
X160358480Y-64154151D01*
X160368970Y-64176329D01*
X160377235Y-64199429D01*
X160383196Y-64223227D01*
X160386796Y-64247496D01*
X160388000Y-64272000D01*
X160388000Y-65522000D01*
X160386796Y-65546504D01*
X160383196Y-65570773D01*
X160377235Y-65594571D01*
X160368970Y-65617671D01*
X160358480Y-65639849D01*
X160345867Y-65660893D01*
X160331253Y-65680598D01*
X160314777Y-65698777D01*
X160296598Y-65715253D01*
X160276893Y-65729867D01*
X160255849Y-65742480D01*
X160233671Y-65752970D01*
X160210571Y-65761235D01*
X160186773Y-65767196D01*
X160162504Y-65770796D01*
X160138000Y-65772000D01*
X159213000Y-65772000D01*
X159188496Y-65770796D01*
X159164227Y-65767196D01*
X159140429Y-65761235D01*
X159117329Y-65752970D01*
X159095151Y-65742480D01*
X159074107Y-65729867D01*
X159054402Y-65715253D01*
X159036223Y-65698777D01*
X159019747Y-65680598D01*
X159005133Y-65660893D01*
X158992520Y-65639849D01*
X158982030Y-65617671D01*
X158973765Y-65594571D01*
X158967804Y-65570773D01*
X158964204Y-65546504D01*
X158963000Y-65522000D01*
X158963000Y-64272000D01*
X158964204Y-64247496D01*
X158967804Y-64223227D01*
X158973765Y-64199429D01*
X158982030Y-64176329D01*
X158992520Y-64154151D01*
X159005133Y-64133107D01*
X159019747Y-64113402D01*
X159036223Y-64095223D01*
X159054402Y-64078747D01*
X159074107Y-64064133D01*
X159095151Y-64051520D01*
X159117329Y-64041030D01*
X159140429Y-64032765D01*
X159164227Y-64026804D01*
X159188496Y-64023204D01*
X159213000Y-64022000D01*
X160138000Y-64022000D01*
X160162504Y-64023204D01*
X160162504Y-64023204D01*
G37*
D17*
X159675500Y-64897000D03*
D16*
G36*
X163137504Y-64023204D02*
G01*
X163161773Y-64026804D01*
X163185571Y-64032765D01*
X163208671Y-64041030D01*
X163230849Y-64051520D01*
X163251893Y-64064133D01*
X163271598Y-64078747D01*
X163289777Y-64095223D01*
X163306253Y-64113402D01*
X163320867Y-64133107D01*
X163333480Y-64154151D01*
X163343970Y-64176329D01*
X163352235Y-64199429D01*
X163358196Y-64223227D01*
X163361796Y-64247496D01*
X163363000Y-64272000D01*
X163363000Y-65522000D01*
X163361796Y-65546504D01*
X163358196Y-65570773D01*
X163352235Y-65594571D01*
X163343970Y-65617671D01*
X163333480Y-65639849D01*
X163320867Y-65660893D01*
X163306253Y-65680598D01*
X163289777Y-65698777D01*
X163271598Y-65715253D01*
X163251893Y-65729867D01*
X163230849Y-65742480D01*
X163208671Y-65752970D01*
X163185571Y-65761235D01*
X163161773Y-65767196D01*
X163137504Y-65770796D01*
X163113000Y-65772000D01*
X162188000Y-65772000D01*
X162163496Y-65770796D01*
X162139227Y-65767196D01*
X162115429Y-65761235D01*
X162092329Y-65752970D01*
X162070151Y-65742480D01*
X162049107Y-65729867D01*
X162029402Y-65715253D01*
X162011223Y-65698777D01*
X161994747Y-65680598D01*
X161980133Y-65660893D01*
X161967520Y-65639849D01*
X161957030Y-65617671D01*
X161948765Y-65594571D01*
X161942804Y-65570773D01*
X161939204Y-65546504D01*
X161938000Y-65522000D01*
X161938000Y-64272000D01*
X161939204Y-64247496D01*
X161942804Y-64223227D01*
X161948765Y-64199429D01*
X161957030Y-64176329D01*
X161967520Y-64154151D01*
X161980133Y-64133107D01*
X161994747Y-64113402D01*
X162011223Y-64095223D01*
X162029402Y-64078747D01*
X162049107Y-64064133D01*
X162070151Y-64051520D01*
X162092329Y-64041030D01*
X162115429Y-64032765D01*
X162139227Y-64026804D01*
X162163496Y-64023204D01*
X162188000Y-64022000D01*
X163113000Y-64022000D01*
X163137504Y-64023204D01*
X163137504Y-64023204D01*
G37*
D17*
X162650500Y-64897000D03*
D11*
X188650000Y-74930000D03*
X184150000Y-74930000D03*
X188650000Y-68430000D03*
X184150000Y-68430000D03*
D16*
G36*
X94721004Y-65166204D02*
G01*
X94745273Y-65169804D01*
X94769071Y-65175765D01*
X94792171Y-65184030D01*
X94814349Y-65194520D01*
X94835393Y-65207133D01*
X94855098Y-65221747D01*
X94873277Y-65238223D01*
X94889753Y-65256402D01*
X94904367Y-65276107D01*
X94916980Y-65297151D01*
X94927470Y-65319329D01*
X94935735Y-65342429D01*
X94941696Y-65366227D01*
X94945296Y-65390496D01*
X94946500Y-65415000D01*
X94946500Y-66665000D01*
X94945296Y-66689504D01*
X94941696Y-66713773D01*
X94935735Y-66737571D01*
X94927470Y-66760671D01*
X94916980Y-66782849D01*
X94904367Y-66803893D01*
X94889753Y-66823598D01*
X94873277Y-66841777D01*
X94855098Y-66858253D01*
X94835393Y-66872867D01*
X94814349Y-66885480D01*
X94792171Y-66895970D01*
X94769071Y-66904235D01*
X94745273Y-66910196D01*
X94721004Y-66913796D01*
X94696500Y-66915000D01*
X93771500Y-66915000D01*
X93746996Y-66913796D01*
X93722727Y-66910196D01*
X93698929Y-66904235D01*
X93675829Y-66895970D01*
X93653651Y-66885480D01*
X93632607Y-66872867D01*
X93612902Y-66858253D01*
X93594723Y-66841777D01*
X93578247Y-66823598D01*
X93563633Y-66803893D01*
X93551020Y-66782849D01*
X93540530Y-66760671D01*
X93532265Y-66737571D01*
X93526304Y-66713773D01*
X93522704Y-66689504D01*
X93521500Y-66665000D01*
X93521500Y-65415000D01*
X93522704Y-65390496D01*
X93526304Y-65366227D01*
X93532265Y-65342429D01*
X93540530Y-65319329D01*
X93551020Y-65297151D01*
X93563633Y-65276107D01*
X93578247Y-65256402D01*
X93594723Y-65238223D01*
X93612902Y-65221747D01*
X93632607Y-65207133D01*
X93653651Y-65194520D01*
X93675829Y-65184030D01*
X93698929Y-65175765D01*
X93722727Y-65169804D01*
X93746996Y-65166204D01*
X93771500Y-65165000D01*
X94696500Y-65165000D01*
X94721004Y-65166204D01*
X94721004Y-65166204D01*
G37*
D17*
X94234000Y-66040000D03*
D16*
G36*
X91746004Y-65166204D02*
G01*
X91770273Y-65169804D01*
X91794071Y-65175765D01*
X91817171Y-65184030D01*
X91839349Y-65194520D01*
X91860393Y-65207133D01*
X91880098Y-65221747D01*
X91898277Y-65238223D01*
X91914753Y-65256402D01*
X91929367Y-65276107D01*
X91941980Y-65297151D01*
X91952470Y-65319329D01*
X91960735Y-65342429D01*
X91966696Y-65366227D01*
X91970296Y-65390496D01*
X91971500Y-65415000D01*
X91971500Y-66665000D01*
X91970296Y-66689504D01*
X91966696Y-66713773D01*
X91960735Y-66737571D01*
X91952470Y-66760671D01*
X91941980Y-66782849D01*
X91929367Y-66803893D01*
X91914753Y-66823598D01*
X91898277Y-66841777D01*
X91880098Y-66858253D01*
X91860393Y-66872867D01*
X91839349Y-66885480D01*
X91817171Y-66895970D01*
X91794071Y-66904235D01*
X91770273Y-66910196D01*
X91746004Y-66913796D01*
X91721500Y-66915000D01*
X90796500Y-66915000D01*
X90771996Y-66913796D01*
X90747727Y-66910196D01*
X90723929Y-66904235D01*
X90700829Y-66895970D01*
X90678651Y-66885480D01*
X90657607Y-66872867D01*
X90637902Y-66858253D01*
X90619723Y-66841777D01*
X90603247Y-66823598D01*
X90588633Y-66803893D01*
X90576020Y-66782849D01*
X90565530Y-66760671D01*
X90557265Y-66737571D01*
X90551304Y-66713773D01*
X90547704Y-66689504D01*
X90546500Y-66665000D01*
X90546500Y-65415000D01*
X90547704Y-65390496D01*
X90551304Y-65366227D01*
X90557265Y-65342429D01*
X90565530Y-65319329D01*
X90576020Y-65297151D01*
X90588633Y-65276107D01*
X90603247Y-65256402D01*
X90619723Y-65238223D01*
X90637902Y-65221747D01*
X90657607Y-65207133D01*
X90678651Y-65194520D01*
X90700829Y-65184030D01*
X90723929Y-65175765D01*
X90747727Y-65169804D01*
X90771996Y-65166204D01*
X90796500Y-65165000D01*
X91721500Y-65165000D01*
X91746004Y-65166204D01*
X91746004Y-65166204D01*
G37*
D17*
X91259000Y-66040000D03*
D18*
X83820000Y-55880000D03*
X83820000Y-60960000D03*
D19*
X185690001Y-61939999D02*
X186690000Y-60940000D01*
X126770580Y-61950010D02*
X185679990Y-61950010D01*
X185679990Y-61950010D02*
X185690001Y-61939999D01*
X120140590Y-68580000D02*
X126770580Y-61950010D01*
X86360000Y-68580000D02*
X120140590Y-68580000D01*
X100457000Y-44323000D02*
X100330000Y-44196000D01*
X94000000Y-48460000D02*
X97460000Y-45000000D01*
X94000000Y-49566500D02*
X94000000Y-48460000D01*
X120000000Y-56150000D02*
X120000000Y-55000000D01*
X118593599Y-57556401D02*
X120000000Y-56150000D01*
X87223599Y-57556401D02*
X118593599Y-57556401D01*
X86360000Y-58420000D02*
X87223599Y-57556401D01*
X121660000Y-50800000D02*
X117460000Y-55000000D01*
X125639500Y-50800000D02*
X121660000Y-50800000D01*
X141660000Y-50800000D02*
X137460000Y-55000000D01*
X142911500Y-50800000D02*
X141660000Y-50800000D01*
X140000000Y-56150000D02*
X140000000Y-55000000D01*
X136053599Y-60096401D02*
X140000000Y-56150000D01*
X87223599Y-60096401D02*
X136053599Y-60096401D01*
X86360000Y-60960000D02*
X87223599Y-60096401D01*
X160000000Y-56150000D02*
X154650000Y-61500000D01*
X160000000Y-55000000D02*
X160000000Y-56150000D01*
X88360000Y-61500000D02*
X86360000Y-63500000D01*
X154650000Y-61500000D02*
X88360000Y-61500000D01*
X158359999Y-54100001D02*
X157460000Y-55000000D01*
X161660000Y-50800000D02*
X158359999Y-54100001D01*
X163358500Y-50800000D02*
X161660000Y-50800000D01*
X86360000Y-66040000D02*
X91259000Y-66040000D01*
X119924999Y-76225001D02*
X120000000Y-76150000D01*
X85271401Y-76225001D02*
X119924999Y-76225001D01*
X120000000Y-76150000D02*
X120000000Y-75000000D01*
X83820000Y-74773600D02*
X85271401Y-76225001D01*
X83820000Y-73660000D02*
X83820000Y-74773600D01*
X121213000Y-71247000D02*
X117460000Y-75000000D01*
X125639500Y-71247000D02*
X121213000Y-71247000D01*
X141213000Y-71247000D02*
X137460000Y-75000000D01*
X143546500Y-71247000D02*
X141213000Y-71247000D01*
X140000000Y-76150000D02*
X140000000Y-75000000D01*
X139474989Y-76675011D02*
X140000000Y-76150000D01*
X84522809Y-76675011D02*
X139474989Y-76675011D01*
X82631399Y-74783601D02*
X84522809Y-76675011D01*
X82631399Y-72308601D02*
X82631399Y-74783601D01*
X83820000Y-71120000D02*
X82631399Y-72308601D01*
X160000000Y-76150000D02*
X160000000Y-75000000D01*
X159024979Y-77125021D02*
X160000000Y-76150000D01*
X82181390Y-74970002D02*
X84336409Y-77125021D01*
X84336409Y-77125021D02*
X159024979Y-77125021D01*
X82181390Y-70218610D02*
X82181390Y-74970002D01*
X83820000Y-68580000D02*
X82181390Y-70218610D01*
X161213000Y-71247000D02*
X157460000Y-75000000D01*
X163612500Y-71247000D02*
X161213000Y-71247000D01*
X162650500Y-64897000D02*
X163463000Y-64897000D01*
X177357000Y-64897000D02*
X177460000Y-65000000D01*
X162650500Y-64897000D02*
X177357000Y-64897000D01*
X159675500Y-64897000D02*
X124460000Y-64897000D01*
X118237000Y-71120000D02*
X86360000Y-71120000D01*
X124460000Y-64897000D02*
X118237000Y-71120000D01*
X89698500Y-52541500D02*
X86360000Y-55880000D01*
X89698500Y-52541500D02*
X94000000Y-52541500D01*
X94975000Y-52541500D02*
X98516500Y-49000000D01*
X94000000Y-52541500D02*
X94975000Y-52541500D01*
X126814500Y-49000000D02*
X128614500Y-50800000D01*
X98516500Y-49000000D02*
X126814500Y-49000000D01*
X129427000Y-50800000D02*
X131227000Y-49000000D01*
X128614500Y-50800000D02*
X129427000Y-50800000D01*
X144086500Y-49000000D02*
X145886500Y-50800000D01*
X131227000Y-49000000D02*
X144086500Y-49000000D01*
X145886500Y-50800000D02*
X147686500Y-49000000D01*
X164533500Y-49000000D02*
X166333500Y-50800000D01*
X147686500Y-49000000D02*
X164533500Y-49000000D01*
X186690000Y-52090000D02*
X186690000Y-53340000D01*
X185400000Y-50800000D02*
X186690000Y-52090000D01*
X166333500Y-50800000D02*
X185400000Y-50800000D01*
X167400000Y-71247000D02*
X166587500Y-71247000D01*
X188015001Y-61576001D02*
X178344002Y-71247000D01*
X188015001Y-53415001D02*
X188015001Y-61576001D01*
X187940000Y-53340000D02*
X188015001Y-53415001D01*
X178344002Y-71247000D02*
X167400000Y-71247000D01*
X186690000Y-53340000D02*
X187940000Y-53340000D01*
X147292847Y-70475653D02*
X146521500Y-71247000D01*
X147768500Y-70000000D02*
X147292847Y-70475653D01*
X165340500Y-70000000D02*
X147768500Y-70000000D01*
X166587500Y-71247000D02*
X165340500Y-70000000D01*
X129814510Y-70046990D02*
X129385847Y-70475653D01*
X146296490Y-70046990D02*
X129814510Y-70046990D01*
X129385847Y-70475653D02*
X128614500Y-71247000D01*
X146521500Y-70272000D02*
X146296490Y-70046990D01*
X146521500Y-71247000D02*
X146521500Y-70272000D01*
X96420000Y-66040000D02*
X97460000Y-65000000D01*
X94234000Y-66040000D02*
X96420000Y-66040000D01*
M02*
