M48
; DRILL file {KiCad (5.1.2-1)-1} date Thursday, 13 June 2019 at 22:38:39
; FORMAT={-:-/ absolute / metric / decimal}
; #@! TF.CreationDate,2019-06-13T22:38:39+01:00
; #@! TF.GenerationSoftware,Kicad,Pcbnew,(5.1.2-1)-1
; #@! TF.FileFunction,Plated,1,2,PTH
FMAT,2
METRIC
T1C0.400
T2C0.900
T3C1.000
T4C1.016
T5C1.100
%
G90
G05
T1
X83.82Y-55.88
X83.82Y-60.96
T2
X117.46Y-55.0
X120.0Y-55.0
X137.46Y-55.0
X140.0Y-55.0
X157.46Y-55.0
X160.0Y-55.0
X97.46Y-65.0
X100.0Y-65.0
X117.46Y-75.0
X120.0Y-75.0
X137.46Y-75.0
X140.0Y-75.0
X157.46Y-75.0
X160.0Y-75.0
X177.46Y-65.0
X180.0Y-65.0
X97.46Y-45.0
X100.0Y-45.0
X112.46Y-45.0
X115.0Y-45.0
X122.46Y-45.0
X125.0Y-45.0
X132.46Y-45.0
X135.0Y-45.0
T3
X186.69Y-53.34
X186.69Y-60.94
T4
X83.82Y-55.88
X83.82Y-58.42
X83.82Y-60.96
X83.82Y-63.5
X83.82Y-66.04
X83.82Y-68.58
X83.82Y-71.12
X83.82Y-73.66
X86.36Y-55.88
X86.36Y-58.42
X86.36Y-60.96
X86.36Y-63.5
X86.36Y-66.04
X86.36Y-68.58
X86.36Y-71.12
X86.36Y-73.66
T5
X184.15Y-68.43
X184.15Y-74.93
X188.65Y-68.43
X188.65Y-74.93
T0
M30
