M48
; DRILL file {KiCad (5.1.2-1)-1} date Saturday, 29 June 2019 at 21:01:12
; FORMAT={-:-/ absolute / metric / decimal}
; #@! TF.CreationDate,2019-06-29T21:01:12+01:00
; #@! TF.GenerationSoftware,Kicad,Pcbnew,(5.1.2-1)-1
; #@! TF.FileFunction,Plated,1,2,PTH
FMAT,2
METRIC
T1C0.400
T2C0.800
T3C1.000
T4C1.016
T5C1.200
T6C1.500
T7C1.501
T8C1.700
T9C3.000
%
G90
G05
T1
X59.36Y-112.04
X61.38Y-112.78
X62.64Y-120.3
X62.64Y-123.95
X66.04Y-134.85
X70.76Y-121.11
X70.76Y-125.17
X82.23Y-94.07
X88.62Y-124.96
X93.5Y-120.3
X102.54Y-128.27
X106.255Y-135.725
X112.02Y-114.69
X112.505Y-132.175
X112.95Y-128.14
X115.75Y-71.25
X116.15Y-73.25
X116.48Y-89.99
X116.585Y-128.095
X118.0Y-73.65
X118.6Y-128.51
X119.19Y-99.79
X119.2Y-70.4
X120.04Y-124.46
X120.05Y-73.7
X120.73Y-128.42
X121.2Y-70.4
X122.05Y-73.75
X122.7Y-124.64
X123.25Y-70.45
X124.2Y-73.7
X125.3Y-70.45
X126.3Y-73.7
X127.5Y-70.45
X128.45Y-73.7
X129.65Y-70.45
X130.05Y-73.85
X130.15Y-75.3
X131.75Y-70.45
X132.2Y-79.35
X132.25Y-81.2
X133.0Y-70.85
X133.3Y-74.25
X133.35Y-72.8
X134.2Y-64.2
X134.5Y-67.75
X134.5Y-69.6
X134.55Y-71.85
X134.55Y-74.9
X135.0Y-82.2
X135.65Y-79.1
X136.15Y-64.25
X137.45Y-65.0
X137.7Y-72.7
X137.75Y-70.55
X137.75Y-74.55
X137.8Y-77.0
X138.5Y-81.1
X138.95Y-75.85
X139.9Y-74.75
X139.95Y-79.4
X140.0Y-71.35
X140.05Y-73.2
X141.7Y-77.45
X143.2Y-70.5
X143.2Y-72.75
X143.2Y-74.85
X143.69Y-90.12
X151.8Y-70.65
X151.8Y-72.65
X153.05Y-74.0
X155.15Y-70.6
X155.2Y-74.0
X157.2Y-70.6
X157.3Y-74.0
X158.7Y-74.95
X159.25Y-70.6
X160.7Y-79.25
X160.7Y-81.2
X160.9Y-70.6
X162.05Y-74.0
X162.1Y-72.05
X163.55Y-82.15
X163.85Y-70.75
X163.85Y-72.75
X163.85Y-74.75
X164.2Y-79.05
X166.55Y-81.8
X167.25Y-70.65
X167.25Y-72.8
X167.25Y-74.85
X167.85Y-80.5
X169.05Y-74.15
X169.3Y-79.0
X170.8Y-77.4
X170.9Y-72.35
X172.3Y-75.75
X172.75Y-70.45
X173.95Y-74.25
X175.45Y-72.65
X177.05Y-71.1
T2
X68.42Y-95.06
X68.42Y-102.68
X70.96Y-95.06
X70.96Y-102.68
X73.5Y-95.06
X73.5Y-102.68
X76.04Y-95.06
X76.04Y-102.68
X89.2Y-95.06
X89.2Y-102.68
X91.74Y-95.06
X91.74Y-102.68
X94.28Y-95.06
X94.28Y-102.68
X96.82Y-95.06
X96.82Y-102.68
X99.36Y-95.06
X99.36Y-102.68
X101.9Y-95.06
X101.9Y-102.68
X104.44Y-95.06
X104.44Y-102.68
X106.98Y-95.06
X106.98Y-102.68
X128.65Y-107.25
X128.65Y-114.87
X131.19Y-107.25
X131.19Y-114.87
X133.73Y-107.25
X133.73Y-114.87
X136.27Y-107.25
X136.27Y-114.87
X138.81Y-107.25
X138.81Y-114.87
X141.35Y-107.25
X141.35Y-114.87
X143.89Y-107.25
X143.89Y-114.87
X146.43Y-107.25
X146.43Y-114.87
X148.97Y-107.25
X148.97Y-114.87
X151.51Y-107.25
X151.51Y-114.87
X154.05Y-107.25
X154.05Y-114.87
X156.59Y-107.25
X156.59Y-114.87
X159.13Y-107.25
X159.13Y-114.87
X161.67Y-107.25
X161.67Y-114.87
X148.892Y-122.754
X153.772Y-122.754
T3
X117.52Y-135.47
X120.06Y-135.47
X122.6Y-135.47
X125.14Y-135.47
X127.68Y-135.47
X130.22Y-135.47
T4
X59.0Y-130.46
X59.0Y-133.0
X61.54Y-130.46
X61.54Y-133.0
X64.08Y-130.46
X64.08Y-133.0
X66.62Y-130.46
X66.62Y-133.0
X69.16Y-130.46
X69.16Y-133.0
X71.7Y-130.46
X71.7Y-133.0
X74.24Y-130.46
X74.24Y-133.0
X76.78Y-130.46
X76.78Y-133.0
T5
X42.75Y-72.79
X45.29Y-72.79
X186.04Y-79.81
X186.04Y-82.35
X186.04Y-84.89
X186.04Y-87.43
X186.04Y-89.97
T6
X129.45Y-65.73
X165.45Y-65.7
X153.46Y-65.72
X141.46Y-65.72
X117.44Y-65.73
X177.36Y-65.7
T7
X91.8Y-66.75
X106.95Y-66.75
T8
X126.91Y-63.19
X126.91Y-68.27
X131.99Y-63.19
X131.99Y-68.27
X162.91Y-63.16
X162.91Y-68.24
X167.99Y-63.16
X167.99Y-68.24
X150.92Y-63.18
X150.92Y-68.26
X156.0Y-63.18
X156.0Y-68.26
X138.92Y-63.18
X138.92Y-68.26
X144.0Y-63.18
X144.0Y-68.26
X114.9Y-63.19
X114.9Y-68.27
X119.98Y-63.19
X119.98Y-68.27
X174.82Y-63.16
X174.82Y-68.24
X179.9Y-63.16
X179.9Y-68.24
T9
X186.0Y-64.0
X186.0Y-136.0
X44.0Y-64.0
X44.0Y-136.0
T0
M30
